<mxfile host="65bd71144e">
    <diagram id="eOXWAhFr6rnG7PrR6DKs" name="Page-1">
        <mxGraphModel dx="1564" dy="1440" grid="1" gridSize="10" guides="1" tooltips="1" connect="1" arrows="1" fold="1" page="1" pageScale="1" pageWidth="827" pageHeight="1169" math="0" shadow="0">
            <root>
                <mxCell id="0"/>
                <mxCell id="1" parent="0"/>
                <mxCell id="7" value="VPC" style="sketch=0;outlineConnect=0;gradientColor=none;html=1;whiteSpace=wrap;fontSize=12;fontStyle=0;shape=mxgraph.aws4.group;grIcon=mxgraph.aws4.group_vpc;strokeColor=#879196;fillColor=none;verticalAlign=top;align=left;spacingLeft=30;fontColor=#879196;dashed=0;" parent="1" vertex="1">
                    <mxGeometry x="298.25" y="260" width="540" height="730" as="geometry"/>
                </mxCell>
                <mxCell id="22" style="edgeStyle=none;html=1;fontColor=#FFFFFF;" parent="1" source="2" target="20" edge="1">
                    <mxGeometry relative="1" as="geometry"/>
                </mxCell>
                <mxCell id="2" value="&lt;font color=&quot;#000000&quot;&gt;question-service&lt;br&gt;(express)&lt;/font&gt;" style="outlineConnect=0;dashed=0;verticalLabelPosition=bottom;verticalAlign=top;align=center;html=1;shape=mxgraph.aws3.ec2;fillColor=#F58534;gradientColor=none;" parent="1" vertex="1">
                    <mxGeometry x="530" y="470" width="76.5" height="93" as="geometry"/>
                </mxCell>
                <mxCell id="12" style="edgeStyle=none;html=1;entryX=0;entryY=0.5;entryDx=0;entryDy=0;fontColor=#FFFFFF;" parent="1" source="4" target="9" edge="1">
                    <mxGeometry relative="1" as="geometry"/>
                </mxCell>
                <mxCell id="4" value="&lt;br&gt;&lt;br&gt;&lt;br&gt;&lt;br&gt;&lt;br&gt;&lt;br&gt;&lt;font color=&quot;#000000&quot;&gt;User&lt;/font&gt;" style="shape=actor;whiteSpace=wrap;html=1;" parent="1" vertex="1">
                    <mxGeometry x="30" y="548.5" width="40" height="60" as="geometry"/>
                </mxCell>
                <mxCell id="21" style="edgeStyle=none;html=1;fontColor=#FFFFFF;" parent="1" source="3" target="18" edge="1">
                    <mxGeometry relative="1" as="geometry"/>
                </mxCell>
                <mxCell id="3" value="&lt;font color=&quot;#000000&quot;&gt;user-service&lt;br&gt;(express)&lt;/font&gt;" style="outlineConnect=0;dashed=0;verticalLabelPosition=bottom;verticalAlign=top;align=center;html=1;shape=mxgraph.aws3.ec2;fillColor=#F58534;gradientColor=none;" parent="1" vertex="1">
                    <mxGeometry x="520" y="290" width="76.5" height="93" as="geometry"/>
                </mxCell>
                <mxCell id="14" style="edgeStyle=none;html=1;fontColor=#FFFFFF;" parent="1" source="5" target="3" edge="1">
                    <mxGeometry relative="1" as="geometry"/>
                </mxCell>
                <mxCell id="15" style="edgeStyle=none;html=1;entryX=0;entryY=0.5;entryDx=0;entryDy=0;entryPerimeter=0;fontColor=#FFFFFF;" parent="1" source="5" target="2" edge="1">
                    <mxGeometry relative="1" as="geometry"/>
                </mxCell>
                <mxCell id="16" style="edgeStyle=none;html=1;fontColor=#FFFFFF;entryX=0;entryY=0.21;entryDx=0;entryDy=0;entryPerimeter=0;" parent="1" source="5" target="30" edge="1">
                    <mxGeometry relative="1" as="geometry"/>
                </mxCell>
                <mxCell id="31" style="edgeStyle=none;html=1;exitX=1;exitY=0.8;exitDx=0;exitDy=0;exitPerimeter=0;entryX=0;entryY=0.21;entryDx=0;entryDy=0;entryPerimeter=0;fontColor=#000000;" edge="1" parent="1" source="5" target="8">
                    <mxGeometry relative="1" as="geometry"/>
                </mxCell>
                <mxCell id="5" value="&lt;font color=&quot;#000000&quot;&gt;API Gateway&lt;/font&gt;" style="outlineConnect=0;dashed=0;verticalLabelPosition=bottom;verticalAlign=top;align=center;html=1;shape=mxgraph.aws3.api_gateway;fillColor=#D9A741;gradientColor=none;" parent="1" vertex="1">
                    <mxGeometry x="337" y="532.75" width="76.5" height="93" as="geometry"/>
                </mxCell>
                <mxCell id="25" style="edgeStyle=none;html=1;fontColor=#FFFFFF;" parent="1" source="8" target="24" edge="1">
                    <mxGeometry relative="1" as="geometry"/>
                </mxCell>
                <mxCell id="8" value="&lt;font color=&quot;#000000&quot;&gt;matching-service&lt;br&gt;(express)&lt;/font&gt;" style="outlineConnect=0;dashed=0;verticalLabelPosition=bottom;verticalAlign=top;align=center;html=1;shape=mxgraph.aws3.ec2;fillColor=#F58534;gradientColor=none;" parent="1" vertex="1">
                    <mxGeometry x="530" y="650" width="76.5" height="93" as="geometry"/>
                </mxCell>
                <mxCell id="13" style="edgeStyle=none;html=1;fontColor=#FFFFFF;" parent="1" source="9" target="5" edge="1">
                    <mxGeometry relative="1" as="geometry"/>
                </mxCell>
                <mxCell id="29" style="edgeStyle=none;html=1;entryX=0.5;entryY=1;entryDx=0;entryDy=0;fontColor=#000000;" edge="1" parent="1" source="9" target="27">
                    <mxGeometry relative="1" as="geometry"/>
                </mxCell>
                <mxCell id="34" style="edgeStyle=none;html=1;exitX=0.5;exitY=1;exitDx=0;exitDy=0;entryX=0.5;entryY=0;entryDx=0;entryDy=0;fontColor=#000000;" edge="1" parent="1" source="9" target="33">
                    <mxGeometry relative="1" as="geometry"/>
                </mxCell>
                <mxCell id="9" value="PeerPrep frontend" style="shape=image;verticalLabelPosition=bottom;labelBackgroundColor=none;verticalAlign=top;aspect=fixed;imageAspect=0;image=data:image/png,iVBORw0KGgoAAAANSUhEUgAAAggAAAHECAYAAABcPtIxAAAAAXNSR0IArs4c6QAAIABJREFUeF7sfQmYVMXV9nvq3tszwwyg4L6wTfcMKlHjmqj5XKKJZjOJYhIV6B4Qt7gvcUdcY9zXKIHpBtQYMYtZNMbEJfq7okYlwkz3gGCUqAiyzNb33jr/cxtM1IjT01N1+/ZM1fPk+fKFqveces/t6bfrnjqHYIZhoEQGpjGL5S+hun0o7BjWVRHqDgT5JzDzPgCqSoT99DIJwnPs8dzYEOeB9nbkq3ywrII7chTy04mkIjsGxjCgnIHgM7L0TcREN5xuC1Rbi1h+nXskCZoAxpcACEVGuwE8I0F3CnQ+nkddd+1qeFvvji7zGVHE8ACEoQG4Z7PlPjAQ/MFbvLhzuyq/ptaDtx2ILiDwAX2ALGXpaoD/IlnMduAvZhFzfQsrMqPpw1LAzBrDgEoGprbxUJ+xOcm8I9kaxUJOAsShAA9VaadnLHqCia8hlss84a/reqnm7XlHkd/zOjPDMLCeASMQzJNQFAMTcryF43sNJGhTCb4UwG5FLQxjEmMFmOcy0cNCwJOWtyQzqnopiDgM88bGAGeAmSYv6RrB0h4jJWwifBWMySBsFhlmCC8x6Arh8wrh2NmZY+jdyPhmHIksA0YgRDY00XAs1dI5hoSzh4T8PwL9EMDwaHi2US/yIHoQUj4shFiVJ+vluWPwlhELEY9axbnHNKGtc/sYx3aTUm4Kga+D6XsAYtHeCn1AAr+CxJMs3fnpxprF0fbXeFdOBoxAKCf7EbadXMJbkeseBRL7AvgGwHURdndjrq1g8CPEtJAF/dNvtx6duwu1V+A+jMsRYWDqOzzIbc8fwhA7EWgHgA8FInRSUDxP6wB+iBnPeDHn/rtH0fLil5qZA4UBIxAGSqSL3Oe0aSyWHuudTuAvAfQNALVFLo34NM4BeArC+lBK9/bZieq2iDts3IsQA5OyXC+kdzKIN2FB+xKjIULulewKA50E+iMRPb/9XHHj9Okm6bdkMvvhQiMQ+mFQS91SU4u7HwucA8Z+IAwrFSfi63wwngX4LUnivtkJ+/cR99e4V0YGklnv2wT8EMwjQPgyAKuM7mg0TSsBfpoErm2ud57WaMhAVxADRiBUULC0ucpMqZw7ExD7A1yvzU60gH2A3gHxUpZ8z7s5J/3wNyi4KmbGAGdg6nx23E38FMATwDwSoG36rzD4dLCpjVk+mUk4U0zezgD/IJhbDOYBmLKoe2ffEj8DcGD0E6y0xCu46dAO0BqwvGZd3mmeN47WabFkQCPNwPr8guBKIl8E5iGgwuu1gfgjKs8snxBM5zY3xl6NdNCMc1oZGIgPv1ZCKwY8ODXIulMBuqofv04oKRzE4sTtE2LGdIDNr6iSKKycRcw0DaC3cn6KwTMrx/EQPGUErx0uSCecGeZzEALfETRhBEIEg6LbpanzeVB+qHcCAdcN0F9IRVHMPp8eq3bur3Kx8taEef1QFGkVMumULFd1OxiWz7tHEdFNFeJ2OdxkBs6OrX7/zhl7bNNRDgeMzfIxYARC+bgP33Ih1wCbgb2pIFwRvgMVaJHxDkhcwVI8jhjezIymrgrchXF5AwPJJVwNYBQ89yBiuhCEIL/AjJ4YYFwEsmek41hhThN6Iqv//LsRCP0nlj3uZGILb2uRdzoIZ/c42Uz4NAMvQ3KaWD66trEqN49MydpKekTGM1s1i7vrLXa+BpapSFUCrRQiWV7nc+ymOY30dqW4bPzsGwNGIPSNv4pZHYgDIdxpBDquYpyOpKP0e4J83JbO3TMaaUUkXTROfYKBqe/wZvl291gCBT1DDjf0lM4AgX7hSWu6EQmlc1hJK41AqKRolejrCTneIg//WmaeWCKEWfZxBhgeCbqbQS+l49ZthpzoMpBszZ8ihNiNJR8Lgh1dTyvJM5pjWda5pp9DJcWsNF+NQCiNt4pZNX4B19VV+TcDPGng3OUOKTyMDwD+IyTNSY91HgvJqjFTBAOpnHsQJE8E0bcqoH9IETuK1JSghshsb7B16tytTOnySEVGsTNGICgmNFJwzJTM+bcSeDKAIDnLDPUMSCLkJNOjWGddlPmiaTmtnuLiEY957oMhseFDryTirzEjDkAUv9rM7AUDXQyalYlbp5ikxV6wVmFTjUCosID1xt1U1r2OgZMIqOnNOjO3JAaC2w05At3UnLBnlYRgFvWJgVRrPkWg05kKfRKMIO4Tmz0vXt/HAXekE45Jeu6ZroqcYQRCRYatZ6cn5dyzSOISIgzpebaZoZABF+B5luNcNHMULVGIa6A2wkByYecoYTuXMfiHhTwDHpDVD8v1fKyWEpfPbnSuL5cDxq4+BoxA0Mdt2ZCT2fyXSNL1ENinbE4McMMEeNL3vy2w9v81j9187QCnQ8v2T3qP6zrWePsJxh8YJgFRC8nFgDKeBvjsdEPs+WKmmzmVw4ARCJUTq6I8nbyAh3GVdyEDZxa1wEzSygAR/ZlgnbOmHgtN7QQ1VI+/n60hu2EHyfmfAeIwNagGpS8MMHBDTcy+4ucjaVVfcMzaaDFgBEK04tEnbzY0mzkekDf0CUjd4g/B/CYTvScAWQwsAzEgaDVNWxN4eD/5Zcgk6QiyrNdnxSlXDA9mzmczkGzrSkiPxllC/Lo/lAkPTpoY9AGYl4OwkoB8MbGXgCBgi0JVSGCTYtbon8NnOrXOXTO2IVOSWT/ZoVgwAiEUmsMwwtS02N2ZfTwAUJC9Xa6xEKCXAHQxuI2JH136lvPqEweSV4xD4xe8VzeoepNGYuxNJHYAF5LNLIC/AGBXVO5Rch6Mv0jyb+2IV/3NnCYU8zT8d05QCXFwzvsqg04B+GsV23mU4YHwGpheB8EFoYtZLmQPz3f4H7bMG7dFUZ1ED2C2R7ZhF4vkISyDFu2yGqDdAOzYO2bVzSZCa97no+5ujL2GoNGZGRXPgBEIFR/C9Rs4JstDHPg3Ergp9C0x2kF4HMDLYHrRqbMeU/kr4oDH2a7f1ttHCnyFgSpiHslMhxBh69D32leDhBbJfKv0/Yfmjq0xSYxF8DnhTR7tuO43mOgUMBqLWBKpKcxYTsSPMtFSArqZ8f/au+1n5o2jok4LitlMoQHbpv4BJHnvDWWkg/btQbvqUAeDm104Z9yToDWhGjbGtDBgBIIWWsMHTbV532LJv6dw+9e7AJ5h8Cyfef7chtgigPT+cmCmprc6tka+am/25eYkxF4MPiI6x6xFxf6DgDewfWW6AS9o56wol6I5KdWa3xtEFwKFhNvh0fTyM7wi+hAsfwuJ58gS78Prfr65cdBy/TUDmCa05sdaRHsQURJM+wEcvLYLZxAkJB2ebrD/GI5BY0UnA0Yg6GQ3LOxCl0bvdQA7hWWSGOsASpLwW2bFqxaEZffTdia2dGxLcMaS9AeRbZ0FYP9y+dJLu4GQelVKvrFq7YoHTCvdT7J3xltcs6rLPZJAQbLtLpWSb0DA36XnX8cxq4Nj9qI525evsdGkbPdODOxgsUiDUNfL57Mv0/+Zjttf0C+G+uKiWVsMA0YgFMNSxOck2/yfkJQ/DctNZn4OPk9tfz32xryjotPVcPJiHknS3cyX9FUQLgNQFRYnfbDzLgOvwrYPN62k17NYaMns+Q8SOBAGW/aB27CW5olwkQA/xsJZMWsMLQ3LcE92gtyN2kX5HckRd4LDu/bMjHMzDc61Pfln/j3aDBiBEO34FOVdKut2hlU5jplPz3c5c+7dObrXmU7JctXqGtSJTv8ggrwSoERRRJZvUnDDY5Vl2TsN9AY4ySXrtiKvcCK1adTLJBPQyqAL/Rrr8aGdWHdrgrrL9wh9vuWjX+NNq2vkJIa8MRQfCZ3puDMoFFvGiDYGjEDQRm04wKmsdwfAJ2q3xvDYoh+MXGb9fnqRNxK0+1SkgSmt7iE+8Q0ABQluTpHLyjGtmwQutVfZ18/Yg4L8jgEzps5nJ7+JdzoxLo/4yU9QKbOVic7OxJ0/V1KAgmTfMdv432bi+8PobMmg2zMJ+8eVxJHx9ZMMGIFQwU/E1DYe6kpvEYCtdG6DiFb50j956dvPzHviwAOLuq6o059SsVML3X3Y5hkgMYyYo3kDguAT41HR1Z3cdlzt+9OJiqofUSon5V43jVm8vaB9c1ldlWHCIeDgSmv0BhOWg3mlAB3XnHCejZ6HxXkUiISR2+bHCxJ3hJDY++887EZzo6G42ERxlhEIUYxKkT4ls+6VBJwBvc2YVpDkS2uFMzPKR6hFUlaYNmFRfg/bopuZeWsiGt2btWHNZeAJ9nGRhQ9f66+lmk9awHWdlrczbFwBILiWF73B/CaI3pHEp86Ox4L6HhU/gldw7XCnMOhSAJtp3FAnCNen487FGm0YaI0MGIGgkVyd0BNyvIUlvUeJsLNGO+1gnukPci6fsx0FV/P6zTgsm63agkcfLAjHM+QuBBoRwc0tAmGWJey5/S03Ycpi3lJKeSxLORmEHaLGPYOXEcSrEpg5BNYj/UUcf8TzxIU8XFjuxUQ0RWe9BGZ+jcg5OJ2g96MWY+NPzwwYgdAzR5Gckcy6ZxLjQlBQlljLYCY8I5lPmZOIvaLFQgRAJy9YPYyrag9j4iPAtD/AuvgsdbcdYL6bpDO9eSy9UypIlNY1LWrfhkXVNAg+FoxIJbIxsAqEJwXTA9Td/vCscUNXRok7lb6k3sjvBoduBfBljddIP5CSr5zdGAsnOVIlQQbLtEWtxGcguLpUl/N+A+A7uvxn8BJJ4uQ5cfthXTaihJtq6RwDy/kKmE8g0B4MtqPkH8C/YsZPMw2xf0TLr955M2VR986+RRcA9IPerdQ+2wcwn4nuZPaemp2obtNuMQIGJua8wwTjdgLrfNX2+3Vx+/umvHgEAt5LF8wJQi8Ji8L0yTnvuxL8MzD0XN8LSicDP003OMG74QE1mtrye7AvEiBORzCb/lmQuDcdt26rxKA0ZfMnM+joDVURo7SF7qBAJ1hmM42xF6PkWBi+pFrdiwCcB9JVmpmzgDgnnbAfDGM/xoY6BoxAUMdlaEhNWfd6AKfq63TIbznS2W1GI60IbVMRMhRk1i/NYS8BeShDTouQawDReyzlw5mGWDJSfvXgTCrrNQP8TazvQBiZIRlXENl/GhnHC/39xsjGSJ/awpu5wn0ZoO01BcYj4JbmhBNUOjWjghgwAqGCghW4euwb7Vs7jnMzQOM1ue77yO85J1Hbb/MOiuVtwr+51lnn7cXAzWAE3SSjMvIg+uOIemt81L/Uxt/PVt2u3jwQAnEQXk+AniP1Ovk4ba236sViOyj2DFm5MzbkI7ywvnOqjsH3W5Zzan9LttXBVJQwjUCIUjSK8CWV808F+Gow60nuYqxMNziV0xSnCM76NIWZkm+iCq53ChGu0ZjM1Vs3GYSHucuenBlH/+7t4jDmT3mdt5Q1/ixm/kZkeKNCG+Lz1lXZt87bDl2mX8B/n4Rk1l1J6ytYahjUTkTnN8etICnSjAphwAiECglU4GZw9L2szbsA66vN6Ri8rtseMm8cFdWTXocDUcZM5dygo+B0ML4SlfwEQtANEhev7bafUNk+uC9xGL+AY4NqvK+QxBUEfKkvWArXBmWQn2HLnpYZQ08pxO03UN9ZxIOHW95qbWKOcPGIevuqqJ969ZuAKtiIEQgKSAwLIrWUxyDv/lTj64VX0glnt7D2U5F2ghOFnHcDgb4N4tFgiPLvg94OmlN5ddY9c7eiIMG0bGP9axn/aDBfwsB2ZXPkI8MEyZKXQtDvM/X2GebE4PMjksq6wavFXbXEjehXlm2dP3MULdGCb0CVM2AEgnJK9QE2Leo+ii1rJsCD9Vixd0on6A092P0LtanN3Y99nAHC4fre2/aKsy4mXOK323fM3aU8ImHCq1xr1XonBacsxKjplfd6JvtgPMiEWzMJ5wk9JvoX6oQ3eJztFFrHqx9Ea5gxJZOw56kHN4g6GDACQQerGjCnTWOx9Fg/SeBZGuABxqsi33FQfy4Mo543pmTWv5XA/wdEI4kxEAmDuuwb7wj5NdH4Be/VDa7e9AzmQpvtKIzXGfT3TMI6BaAg78CMIhiYvICH+THvcV0VWhk8ORN30uYkp4hgRGCKEQgRCEIxLgSllR34FzHzKcXM7+0cBk2MrbbuG2hdBHvL06fnbyhadTCBj2HQsdre3/bGUcYtJO1rwqq8OLGlY1vLcs4B47TeuKlpLhP4bgbdsy5u/9UU5+kdy0FXTXewezQEZXq3ssjZhFvA9hWm9HKRfJV5mhEIZQ5Aseabsu6XmfEACNsUu6bYeUTogM/7NDfGXi12jZn3SQaOyXZsF4MTtLadAKiPUe/5pgfA1nXpBnq+92uLXzGhtWNvC845RDii+FV6ZgYdFwmYm2f31nsSg/6lx0r/R21azLuw9J6FltdE9LZlW0fOHE3P9X8mK3+HRiBUSAxTLe7BEHhUi7vMP3fYuWSgFkZSxWnQ18GvHrIXsXdu2bsTEnxmvEgsb0k3VP1S1R4/jpPMeT8k5lNB2KvcbZqD7peQ/rXWoKrnZm1P/bZ/go44fhozlV27ObjqchAdr8WexCHpRuevWrANqFIGjEBQSqcesOAYuyaX/54FoSm5h8aPiFu/MdeP+h6/IFZDc51b+3DuABDc/9dUeKYIXwORIHkZWda16Xrr50WsKHpKMps/CYyzSdCIMouDIBHxYYvcE1fHa5abVwpFh3CjEwvXqZf434fPWv7eMNMR7QnrQROrvsdKN4IRCLoZVoA/Ibd2CwtVtxBraXDTQdI/srmxekA0ZVIQjqIgpr7Dg/LrvJMJmKavxn1RrgQJemuYeVqmIXZzUSt6mJRszZ9Ggi4FY2iZcy7aGbgiVmvfMmMb6lCxN4OxnoGmnHcYM/8aUH8bhZnv80X3aXPjg98zfEebASMQoh2fgnfJlu6xQojXtfReYJ7heu6ld+9Yu7wCqKg4F5NL1m1FXlUOKLQ1LufnTTLEKe1xcVepv9yC05HanDyeIINqeOWs/xCIng7LsutN6V49H4mgJbe0qi4l8HGqLRDDkyy/kGmsWqQa2+CpZaCcf7DU7qQfo01p7d7BJ6GpPgGflE7ElB4/9+NQlLa1oLhS1n1ZkIgzuK40EEWrJB/PMWdOZjR19QYxuYSrhe9PYOYZvVmnfG6h0yjn0gnni+aqnHJ2PwGYyuZPBCh4VaZ8WCx3nNlQtVA5sAFUyoARCErp1ADGTJNb3T2l0JKN3sXgkzOJWLMGzw3kxxhoWsSD2fHOhwyabHG8rOQIcZJTI2YXeywfvC5x291Jur4siueCcwzrAeGLq5rH0tri15mZpTCQzOabCHQ7gOpS1n/eGhb2XpkxmG9Enmpm1eIZgaCWT+VoU5md7qx3riBcoRqcmV9kQWfMjjv/TzW2wftfBk7JctVa4X+VpJwO0B5l5YhwDnn2XT190Z70Htd1rpEngOW1Zfb3RQJNW87WYw8nKOirYIZmBgrVQiXfqONZJeB8e7V9vam7ojmIfYQ3AqGPBOpeXihfO8h9lkDK2w0T6A5bWBfMqKegQYsZoTDANGmRt4+wcTkY+5azBTID1/gdXTfM3eWzk8WC626M6jMJOC8Uaj7biBs0WZI+Lpw91gjZMOMwtY2HutK9GqATNdj9h9dh71eusuAa9tMvIY1AiHhYj8nykBi84F63+utyhCvScefiiFPQL91LZfO7MXACQEfqa7HbI3USRL/wuqyr5o6jZR+fPWFBxwirOnY+MU8tV0IiA6sI/GtJuHN2PPZSj7sxE5QzkMq5gZC9SDkw4OWxZvg9ieFrNGAbSEUMGIGgiEhdMBsEgo5f+JKAy5sTzqW6fDe4n8/AlCxvJ+F+nZl+CsJmZeKrC6AHyLKuaB5DLYEPExd2NVi2uDgQLzrePxe5zxUs+QJbOA/PTJCpilgkaaqnpVrc6RAFgaD81koe9tB7EmQEguqgKcQzAkEhmTqgxs9fObRu6OAPlWMzv8kszs802vcpxzaARTMQ3A6Q7Z07W1XOk2X8Mu4qFBuy7Uul6xITBbUbDiunP77k/TsHOa/P2546iybTTFTOQKrN+xGkDF4zjFQNbgSCakbV4xmBoJ5TpYiprLs/gjKyqgfjEbB9UrqRFquGNni9ZICZmlo6tma7KgvmoF5C+IPhgrCgYJgxDgQnfCcKlSI6yMsnmhsHLTcZ7mWJwCeMTs51xX22bifga6q9IWF/pbmenlaNa/DUMWAEgjoutSA1Zd0rGbhAPTil0wm7ST2uQSyVgeAqpLTc5wi0Y6kYFb5uIfn23j3drKjwPVac+6ms1wxwSrXjxLi8ucG5RDWuwVPHgBEI6rjUgpTKuS+Asad6cCMQ1HPad8RUljcH3KsA+iGA8hZV6vt2ikVYB0H3Y5B1Xnprer/YRWZeOAzoEghgPJ9ucL4Uzi6MlVIYMAKhFNZCXJPMukEyofo4MafTDTFzghBiLIs1FVwv86RMgfhcZt662HWVOI+IljPLax3hNJvrttGMYCqbbwZI+QkCAJlOOOpvZ0WTxor0Sv0XT0XSEF2nU1k3qDuvenQz+OeZROwM1cAGTw0DQVGldvJ/IBlBPfzRalCjhUKgJZC4tFZYv7rVFD+KVnA+5k0y594ExokExFQ7mU445jtINakK8UxwFJKpA0qPQKC3GfISU2JZR8QUYjJTqs0/CowrAa5XiBwBKGpj6V+Uboj9ioh0iOAI7LF/uJDM5Y+DpOlEUH6aZQRCtJ8RIxCiHR9oEQiE133G8XMSzrMR375xb33r3e8x42cbREKlf2YZ4DYicW5z3P6tCXD0GZicc/eVjDsBjFPtrREIqhlVi1fpf2zUshExtAMeZ3v0dl5QalbtIDwF7joinRhsEsLUMqsNLdXmHsySbyLQTtqMhALMb0DSaelG56+hmDNG+szAlNfXbenXVD0Axn59BvsUwIi4bU0nkqpxDZ4aBoxAUMOjFpTkEh5FnrdEA/ijI+L2oeaDqYFZjZATs/kvWqAbAQS1MSpvEJ4SzKfNSsReqTznB67H4+9nq25X788gHKyaBa/bHTl33KBPlPlWbcPglc6AEQilc6d95cSWrsMsYT2k2hADf8kknK+rxjV4+hk4JtuxXQyxy3TcS9fpPTNnbHIuNmWTdbKsDzuZdR/RUSyJLXwtM8Z5VJ/nBrkvDBiB0Bf2NK9NtrhnksD1qs0YgaCa0XDxkkt4E3j5cwhCQwEtHXsRV3d3imvv3ZlW6UA3mPoZ0CUQwHxauiF2i/4dGAulMGAEQimshbQmuF5EjNNUmzMCQTWj4eOtr7ronUSgSwGuDt+DYixSF4Gnd2PNHaZrXzF8RXeOLoFAwA3NCees6O58YHtmBEKE45/KuvMABB31lA4jEJTSWTawCa9yrT3InQpQ0G1vWNkc+UzDtBKQV3gdK2fM3WWr9mj5ZrzpLQO6BAJAv0on7KBqqBkRZMAIhAgG5SOXUln3GQBfVu2iEQiqGS0fXlBQaR3J48EyeN2wZfk8+YTld5n5ajjOXZnR1BURn4wbfWBAl0CQjKdnNzhf6YNrZqlGBoxA0EhuX6GTrfklRDSqrzifWs9EeKg57nxLMa6BKxMDU+ez427iHg8unCSUWyS8CxJXOPXirhlE6q/olonjgW42lfP+BOagBbja7wyiXDpuJwY6v1Hdv9pgR3WXFepXMuuuJGBTxe67AM1LJ+xjFOMauDIyMI1ZLMv5TQz+mYZnpqidMbCKQOeue8VKzzuK/KIWmUkVwUAqm78PTEeAYCt2+IN0wtlMMaaBU8SAEQiKiNQBk8q6qwEMUYpN6GLQ7EzcPkEprgErPwNBaeac3wpwvDzOBL8GrQaY0snloV+j1VQ2/wuAJgCoUmxmTTrhDFWMaeAUMWAEgiIidcBoEQhAB4C70gnnTB0+G8zyMdCUda/k4NYLobYsXjDaiXBzc8K5sCz2jVFtDKRa8zcz0XEE1Cg2YgSCYkJVwhmBoJJNxVhaBAJjHYCb0w1O8L7ajH7CQDLrTiMg6M5Z7l9jqyHEDel667J+Qq3ZBoBUm3sVJE4BUKeYECMQFBOqEs4IBJVsKsbSIhCAtUHxpeZ6Z7pidw1cmRhIteZPZaJLCBheJhc+bXYFEV/WHI/dGhF/jBt9ZCDZ2n0ZkTgdwOA+Qn16uREIiglVCWcEgko2FWPpEQi0BoKuN7/wFAerHHDMlMzljySyrgPziHK4sFGbRMuYcXYmbj1gchIiFZmSnEm1dE+HEMEJlREIJTFYmYuMQIhw3PQJBL4+Xe+YI+AIx74n14IGOoN3x5dZetcB2Lun+WX5d8aLbOOs9vn2M+ZWQ1kioMxoU9a9lIEgb8kIBGWsRh/ICIQIx0iPQMBahrg+k7DMK4YIx/7zXGNmmtyCBrb9q8D8/Uhvg/Fbsu3zZ41GK5nbDZEO1ec5l8q6wd8Lc4JQsREszXEjEErjLZRVOgQCAesk5G2ZRNX5oWzCGFHOwNQW3swVftDR8UTl4BoAmfjOmO9cPKORVmiAN5AhMJDKuddA4mQNN2RMDkII8SvVhBEIpTIXwjodAgGEDmbMyCSc4NeAGRXGwHhmqy7r/RSEsyvKdcZ16/5hn2deNVRU1P7jbCrn3swMc82xMsNXstdGIJRMnf6FWgQC0EVEmea4XRG/PvWzXFkWUln3hg1HvZXl+HpvbzT1NyoxbEAq590F5kmmUFJlxq9Ur41AKJW5ENalsu4qAJsoNuUS6P7mhH2sYlwDp5mBZDZ/G4FO1mxGMzzdlk7YwX16MyqIgWRr/pcEOlJ9qWVamU7YUbmeW0ERCcdVIxDC4bkkK6mctwTMGpo10UPNcds0ayopKuVZlGp1rwAVksQGlccDZVY7GLgpY6otKiM0DKBU1n0IwKHKmzWB29KJWJlKg4fBXGXbMAIhwvFryuafZ9Beql007Z5VM6oXL5nNNxFEkJS4rV5LIaEz3mHiizOJWHNIFo2ZPjKgq90zCM+m484+fXTPLNfEgBEImojs5ExGAAAgAElEQVRVAZvKun8AoPyXvhEIKqITDkayJb8nCboDwB7hWAzNynyWfFKmMfZiaBaNoZIZ0CcQ6MF03P5uyY6ZhVoZMAJBK719A0+15meBqKlvKP+72ggE1YzqwZvYwttalncLGNGudVDq9hm/zZN76j2JQf8qFcKsC4cBXQKBwb/IJGJTw9mFsdJbBoxA6C1jIc5PZd1LACgvaGQEQohBLNFUUOsgT+7lRBRmW265wV1Rotu9XsZEd8Z8y9RI6DVz4S7QJRBAuCgdd64MdzfGWrEMGIFQLFNlmJds8SaQ4DmqTRuBoJpRtXg/almzWZWoOZ/Wl7YNa+QBvLbB2M4AYmEZJuCGTtl59S8bh5hCSmGR3ks7ugQCMx2TabDv7aU7ZnpIDBiBEBLRpZhpanH3Y4GnSln7eWuMQFDNqDq8Y7IfDHEw5AxiXKT+StlG/fTBPN8XdL4NgBlXb8h5sNTtbONIBHgSuMKFfeM9CVoThk1jo3cM6BIIBOzTnHCe7Z03ZnZYDBiBEBbTJdiZ2NKxrSUc5e9njUAoIRghLJnGbC9r84+B5BtAGBaCycAEMzgrSJzeHLcfDv6Hppx3GMA3MSOh/lrbRnbFWEmCzti+3rp3OpEX0t6NmSIZSGa9Rwj8tSKnFz2NbXvrzGj6d9ELzMRQGTACIVS6e2fsAGZ7dM5ze7eqqNlPkG9/p3ksrS1qtpkUCgOTsryTIO/XYDSGYnC9kfeJaNJH4uAju4FIYObZADYP0ZdFguzxs+K0IESbxlQPDByT5SEx9n4Pwv6qyVoXt+15RL5qXIOnhgEjENTwqA0llXVZA/h8lnJCprFqkQZsA1kCA1OZnXzWe5oIyutebNQdhgfCwemE8+RnzUll3f3B+GuIrzqC84wX1+Vb95s3blyQE2FGBBhILejekatoDoF2V+1OOuGY7yDVpCrEM8FRSKYOKB0CgcGtBDo1nXAe0eGzwew9A6mc+wIYe/Z+ZekrfNi7zUnQK5+HMDGb/6IFerl0K6Ws5PnpRCxULkrxcqCsmdjSdZgtrJsYaFC9ZyMQVDOqFs8IBLV8KkfTIRAAvMvgyzKJWFCAx4wyM5DMuo8D2J+A8D6PHg5I7/DZJwefpiO5sPMAsu3Ax7AGA/z3dCJ2QFgGjZ2NM5Bqyf+YBV1MwBaqeTICQTWjavHC+4Ok1u8Bg6ZJIHQBuD2dcCqrZXA/i/o0ZrGszb2BmaYSUBPS9nwmOjFWb2VmEBWV3zJ+wYLYIKchKdZXdAzlZgMDnUSYMaLePnM60Uf1GUKiyJj5OAMbOoiepKGTI4xAiPazZgRCtOODVNYNvsyr1LtJ6XTCVl6lUb2f/RMxEAdvLvYPIylvJlB9SLvMAzTDkdb0GY3Uq5oDhcJNwr2UQMeFVyOB2hg4Y2Tc+pMRCSE9IZ9hJpX1mgFOafCgK51wwhLGGtzv/5BGIEQ8xk1Z93mGjsQ1IxDKGfpJ2e6dBMTtwauFkPzwQfQXT/pnzW2oWliKzQmt3TvYwroeXLjuFspJAoAnJeyTZyfon6X4bNb0nQGNAuHZdMI0aup7hPQhGIGgj1slyMls/jYCnawE7BMgRiCo57Q4xIltXQ2WtK8F+DvFrej7LAZeYMKZs+PO/+sL2qRF7r6WwA0c4m0LBv4ghX/2nPrq1r74btaWxoA2gUC4OR13Ti/NK7MqDAaMQAiD5T7YSLbkJ5Ag9eWWiTOZeqcJRDquUfZhx/176YS2jhG2tC8H6FgAYfU8eBUCZ6frnb+qYDfV5h4MiesA7KICr0cMggRoLmBdnI7TWz3ONxPUMcBMyTa/mZiT6kA3IDEdnW6wf6kc1wAqY8AIBGVU6gGavIDjssrLqkZnxq+tvD111jhaqRrb4H02Ayct4LrOKvc4gIIGXIND4Ym5BUSnqb7Smsq6XwdwE4CxoewDWMPgaYO6nZl3jKN1Idkc8GYmLuThwvbvIvARysmQdn26kRYrxzWAyhgwAkEZlXqAClXM4K3WgP6sL/n0OY2xFzRgG8hPMcDMNGkJ9rQ895cgGhMGQUS0XLJ/2sh47Neqk/wKNzBy/veZ+BZibB3GfgBqA8tjRtzjvDh9urnZEAbnqdb83iAKhOCXVNvLwx5qem+oZlUtnhEIavlUjqZNIBC9xSwvzCRic5U7bQD/h4EJOd7CZu8JADuERE83GFewY1+XGU3BTRjlI7mEq8n1zg5a9uq5afOZLi/0yD5gbpzeU74hA/g/DDTlvIlS8lVE2FY1PUYgqGZUPZ4RCOo5VYqoTSAAPktckWl0LlXqsAH7XwaYKZVzWwGKh0jPo16H/b25u1C7TpsTXuVau9b7HRgH67TzcWwGt2XiTsLkz+hnPJl1L6VAALL6WytGIOiPX18tGIHQVwY1rw8EggNvJem4Vka4Ih13Lta8hQEPn8q5vwHjeyESsbo5bm9KISWgBq9PUm3+SmLeJKw9EvC75oQTJqdhbS1SdlI593IErcfVDzePNZvdkxhu2nur51YZohEIyqjUAzR1Pg9yh3oPabkvbwSCnqB9DHVDV8QgfmGN99m2R+h6rbCxTRReN3jesjC7P7Kgb2bq7TC5DSuGkbGjUSA87qy2vzVjD+qIzGaNI//DgBEIEX8oxi/gWK3jXUAC0zS4es2IuH3RdCJPA/aAhyy0bw7yDgibhUIG85uWdA6aOZaWhGLvU0amLOLRvnAfA9GokOyvkDH7gNkjTRElHXxPY7aXZb0rQThXOb7EtHVuy09N107lzCoFNAJBKZ3qwYJs8aVZ76tE+ItqdCK6zyXrJ3PrKfjlZ4ZCBpILu78AW9xPYV0DZLwDi44fMcb6c7kEX/CFsiTbfahF9p0AK09q+6zwMLAInjwqs0PV6wrDZ6AATF7MI6X0rwHzD1QT4kvvkNH3Vj9mbqOoZlYtnhEIavnUgjaltXsHn8QbqsGZ8Bp5OCM91nlMNfZAxjv2jfatHSd2CxiHg+Bo54LRDsb1wu24eda4oWWtazF5wephXDXoVIDOYnBdCHsPGk49yI59SmY0/Vu7vQFkIJVzDwLzTQB9QfW2LZY7ziyx5LdqXwzexhkwAqECng5dAgHBF4vgk9Px2OwKoKEiXBzPbNW2uScRiwsB3lK300FfZALfD+lcEJWiM6kWHkOWfyWDjwKHUi3yXWa+sj3h3DGPyNfN+UDBT+W8SWAO+oXUqt6zEQiqGdWDZwSCHl6VoiaX8FjyvX/q+WPLJ6UTsZ8rdXgAg6Wy3uGAvBagREg0PALYZ6YTpPyEqS/+p7LdOwLiBgBBxcUQBmcBcU46YT8YgrEBYSKVzZ8IFFp8qx6SbXunzGhapBrY4KllwAgEtXxqQUsu7BxFdiFbW0ORHSMQVAWtqY33Y+ndCmBXVZg94DzHzCdmGmL/CMler8wkW/O7EhW+YL7cq4UlTibgFQic2lzvPF0ihFn2MQY0CoQ32PO+mdmh5k1DeLQZMAIh2vEpeDf5LR4mO/2rQHy8cncZF21SY99w4/bUqRx7AAE2LWrfhkXVNAierKOozKepZPAysDhjZML6neoyyqrCtj7B1v8uSN5IoBGqcDeKQ0HxL57pec70u3ek5drt9WMDhevVQ7wzQbhc9TaZ+U4r71xo+sCoZlY9nhEI6jlVjnjA44/bo7f7yncBnqccnOm3QnjnzopX55RjDxDA8fezNXgP/5vs8wNACEmJRF1gpNfFrVOi/s69kJORdW8noqAbYFUIj4TLFh3RPt96aN5RJh+hVL6TbV0Jkta1AA4vFWNj63xfju9sjP026s+u6n1XIp4RCBUStVSLezAEHtXg7vtS4kezG52/acDu/5BBE6Y2dzfBND/Ezb6cTji7h2ivz6ZSWfdlAF/sM1CRAJJ4j9n1zsumHHORhH1qWqql82CIQitm9TU8JA5JN6ppPV7a7syqYhkwAqFYpso8T6NAAME/vDlR/fsyb7EizU9s4W2F5b0YXkdDLEonHA25KPrpT2XdhaG1h2Z6x2drrzmN9Lb+nfU/C03Zru8wLD0Jn0YgVMwDYwRChYQqlXX3B/BHAMrvlhPo8OaEbQRCL5+F4NVC3Rf9mwD+cS+XljidFndJa+9fNtKKEgHKuiyV5c0B/zmAQ2l3LcG3jYo7p0U1R6OswejBeFPW+w6DNQgEWiss/tasMc7fo7x/49t6BoxAqJAnIdnSPZYscTsYB6l3mY5b123NmTeO8uqx+y/ihnvimZB2uJalnJpprLovJHtazCRbun9IQvxCh9D9TIeJk6bOR+9CeVg2W7UljZ5IzDN6t7KI2YS/krB/3DyGWoqYbaaUmQEjEMocgGLNNy3iwWzJMwA5vdg1xc+jeeRbpzePpXeKXzOwZyZbur9LQtwLoCYUJhjXOXX2tBnbVHZzm6nv8CC33b0sqLQYCm9AJxMdnYnbvwvJXsWbaVrG28hu7xYCjlC9GWZcIqR9U/NYWqsa2+CpZ8AIBPWcakJkamp1JzFRWr0BWiHIOnBWnBaox+5/iFOyHdt5bP+aiPYM4xSOwb8gOBemE/R+f2AzeNVAcK9k0HEh7IcZeNGGfcTMBP0rBHsVb2JyjsfJoMkYMFz1Zpg5lWmIhXXqptr9AYdnBEIFhTzVkp8EQZo+XLx7OhELMs3N6IGBVM69iRlTKZTTA/oDWdY5/e1ItmlRVyNbhWt039b9wDHQSYQZ6bhzum5b/QE/lc3vBtBLWvYiOZluNKXdtXCrAdQIBA2k6oJsynpHMXiWnve3RiAUE7dUq3sRCGcDGFrM/D7NoUKXzXNH1Fu/LleHxj75/zmLpz3O9rLt/eAI+2dgDqGIEn0I0HXpuHWlrj31F9xUlncDPB0CYS2DJmcStvp6Lv2F/IjtwwiEiAXk89yZlMvvTkw3EPB/6t3mM+vg3HFrgrrVY/cPxGTOPZQYwa/ecSHsSILldXUUu6S/xuSULFet4/xlIBEILhECp0FL6HPSCeeREGxVpIn1MfFOARWec9XjSYDPNCeVqmnVh2cEgj5ulSMH5U/zQ72LCThPNTgzv2blOw8sd7tg1ftShTd+AdfVVflXh3WlkYgy29dbkwP/nwTE9m0YJrrzm8MRw5nlcAs0nAUNJ4FhxLyplGIwCR4CYDAYQxg8hECDAFSDMUh522mGC0IHgC4GdxBoDQhrAKxlycF/X0tEq5ixkiR/4IM/IBIfwJUfyKrY+2/VY+X+gAz291abP4uZg0qL2gcT3erXWefP3YratRurQAOTF/AwWeU9qUMEM3AVbPvyzGjqqkBqBqTLRiBUWNiTLe4FJKDlmNSy7K1mjqF3K4wS7e4mH19STdttdwaCP3BmVDwDBHF+LcSN/fVkpi8BmrKYt/R97999wdjYWpa4MNPomM+QDnI1YRqBoIlYXbDJrPsTWv9FpfxIlqrsbZtHDNyrjtOmsVh8Imp4ZccQQdZgx66qZXjVTLw7S7qUSH1Wt67nxOB+HgO0AiSnE9NLBO5yPdluU9W64PRj7WvoGMg9HCa2dGxrCUf9bY+gkRbjwkzCucY8m5XDgBEIlROrgqfJrDcBhGuIeWsNrh/an9/PTp3PTr66fbi0nS0sW2wmpdxU0H+LhQmybAZvLyXvSIRGgOoBbKGBZwMZHQbeA7iNIHJM1ALmpYD/nyNwYoslvDWAeF+y9/5QUbOiP588JNu6vkHS+pPy8DDeAcmfpBNVdyvHNoDaGDACQRu1eoCTbZwg37sJhG+otsDAXzIJ5+uqccPEm7xg9TA/VjMCJLYnKbdm+lghI6YaIh4FogYG1xNoOx0nMWHu19jSzgADWM5ADsw5EtZiln5w2vDR6BYs3pUxa0mNwNKfj6RV2j3SaCCVcx8F42DVJpjxJ0/4p99tusaqplYrnhEIWulVD37A42yP2d6/lZlPUI7OcNMNTkw5rmLACa9ybfUQJFw3vyNZIg5G7UcmmGk4iEcRaCQzbxtOrQLFGzRwlcRAN4iWg3kxg5YQ8QcfOU+MTl/yYlj4Z0fXhy3zxm3xcWERyT2msm5Qbt1R7RwT3dleb/3YtHhWzaxePCMQ9PKrBT2Z9W4j8Mk6wNMJJzLPxNGvfbipU1W7G5HcR5DV+B8RAFQR8dYM2hbrX7VU6eDCYBoG+shAHuB3AfoXA+8I/Dd7n4kXScYLVbX2yzO2iU7zrVTWDU5MlA8G3Z5J2CE1NVPu/oAFjMyXwYCNQAkbT+XcC8F0LlC41qZ0+L530JyxNY8rBe0BLDgVGbm1t7cQOAyE3QAE1/PA4CoqlHulIA9Af2GiMDdtbA10BlYDQenswonDRzkPHWD5MpP468i4/XTYxbEmtbhfFQJ/VR0YRnD9VV6TSVSZGwyqydWMZwSCZoJ1wE9a5O4rLNwGYFfV+Ez4WybuKH8H+ZGfU9/grV3H/yaDxwtgFIMEIImJBpHEEKzPGVB+Q0M1T6rwgp9r5kOois2Kx5FgdAY1JABuBwQzWBLREgn5GwHn4XSc3tK1y2TOfZwYB2jAf8UHTp6TcJ7VgG0gNTJg/jZpJFcXdHAdb9mx3m8AHK7BRj6dcJQc2R+T5SExkieA5NGQaNjga/DMWQzYZL4bNYTPQPY3BhhgAjwAfuFgrTC4FUzzfN++c84O9J+8h77sPZX1ugHWkYP04Ii77e9Pn06FwlhmVA4DRiBUTqw+4Wky6/6WgO+qdj/4Q7R93K7p6Xhz/P1sVTeium4TxPJrQajGMB/yMAJSkPILINiqfTN4hgHDwEYZCMTDIgLPJJJ/RFfVythg8LoPke/aGV09JQcGV4C9oV5HINxVc8zA7zIJ53uqcQ2efgaMQNDPsRYLydb8nUQUlKdV8mv/P04GBU1c96jMDoOCE4oNg6lpEeqYsLmw8oN8F0Q2xoDFJCYcam4KaAmxATUM9ImBQhdLxp+Z6Jfw/EWWE2OP0ekB798Tx1oQ/SchMZX1jgT4V+pf7xUSM9PphH1SnzZjFpeFASMQykJ734025dwDJfMsAo3uO9onEJgZj8GxjxWeN1oShoJIwOfdiXAUgB2CVwSKbRo4w4BhQDcD66sZthFwH5heZMEeAWvIs99ky78b4CD/QPF3Ai0GuCmdcIL+DmZUGAOKH4YK230FuzuV2XFzXpD0s7vqbQRZx8T0S0B+HUSjVOMbPMOAYSAiDBAthZR/A9GRAJTfimLwS7HVzpdn7EFuRHZs3OgFA0Yg9IKsqE1tyrrPM7BX1Pwy/hgGDAOGgYABAl5oTjh7GzYqkwEjECozbgWvU1nvjuD4TnkeQgVzYlw3DBgGIsNAN4FmNSdsLUXdIrPLfuyIEQgVHNxka35XIvEowJtV8DaM64YBw0D/ZGCF78uvzhlb9Vr/3F7/35URCBUc46AC4ahtvWVE0NHZsYKZKdZ1U6aoWKbMPMNAbxlgxvL2hL19T1cse4tr5ofHgBEI4XGtxVIy6/2LwNtqATeghgHDgGGgRAYY9HYmYQcdU82oUAaMQKiQwDEzHQ/YVTmItRJ7EXnXQGAvsLlyWCEhNG4aBgYiA5KA+fBxXq1lP9Mdh7wL8OhjNRgGIimVsmcjECIcqfELOFbjYHPH6q5xffqCEHQhgZRfa4wwBcY1w4BhoB8xwMA/BNFlBO914qquGuD9WxPU3Y+22K+2YgRCxMI5fsF7dTX20DE2iSHs0Cj25cUE+qiPQcS8Ne5EnIGg9n1Qgjf4v+v/w2DQf/7/gvuFWv/B//6xwQT6VK+MoIGWQOF/5g3/vdBUKyiaNWCaa0U83pXlHvObRLgCglrg8Vp3qJObuxW1V9Ym+re3RiBEIL5T5/OgrsHuOFuIUVLQaJJyEoBG84c3AsHR70I3gzoo6N5HaAcj+L8dQVc/ZnQRcReRCL7kezekBAvRTUBeMvIEzoPgMiOonueBkC+Ig/XCwBdcEA3/HbT+iz8QChtURNDEx+GgxwazAwhHEGIMxEjKKojeawRmaTFTNQWdPIIunhy0+eYaEAaBqZaBWiJUgY0A6V3wK2x2IFglskxIC9ASsuSbVrWzYMY21FFhO+l37hqBUMaQBtcUBVkHMMnhzPgaAXsYUVDGgCgzzUsZ1EKg90AcdNr77CpywVcyoUOCPxSElcRiFSSvJEt+mO/y11i1NWtGjsK6nhpnKXM7ZKBpzPbSN1Hnt3cOiVVbQ9gXm0jQENjYhFgOA2gTQA7GxtQHw2LmYUS0BYHGMlh12fGQGelH5kq/IBSccr0E4C/BZ4cZj2caYv/oR8xU1FaMQAg5XFPe5NEy7x3LhE0B7AJgf9PbIOQg6DXXCcib2MMv7arYe2IlVpoys3oIn8YsWlvXDqulwZv7wjsGjDMB1OixZlDLwEAgoZ8A8CoEPhRs3zsrTrky+DFgTRqBEELomxbxYHb8IyFxEIi3AeNLQHCcakb/Y4DvF5Z/7qwxNUv7396iu6PJi3mk9N2fARQ0FDOjvzGw/rXbCwD/CxJPckf7A5kvbvphf9tm1PZjBIKuiDBTKpffgUHngalRCGzPjC3NKwRdhG8El4O2toX36SEIMn6WJU7LNMZeDHmXxhyAZEt+TxJ0M4Av6yeE1jIK3RCDk0AzwmMgOFV4D4y3AM6xz1dnxsYWfLx1dXiu9H9LRiBoiHEq554N0MkMriLGcABBgpcZ+hhwGfwiQH8H4Um43qL/mLLEPkTiQgA76jNfQO4gwu2L33r6gicOPNDTbMvAfwYDQWXR0dt6V4NwUgiC8J9geSX7MuioWhjCsUdLDwfCwlcJ2DNI6jSB0sqAS0QrGOgWxHfOqneu0WptAIIbgaAo6BPbuMGS3j0AdgZgm5MCRcR+EqYD4D+xxB8knMeq1+K9j/65dS14/wMgpwe39j4qwhKc4rR5l4ERCAStzzoR/rb2Zfvr846i3t840ELVwAQdfz9bg3fzHmHGVzUzEFwXvTJdb1/y8edtGkBPPgHRMPi/z9vaYe3DYnlnf7LoSAJ9MwTxonnrkYQPThYCYf5PX9g/nFNPrZH0ssKc0vpHs8K4KN5dZpq6HDWiA3Wd7H9bEC4C86jiAczMjzEQ5Dt3AdQJ8EfZ/i4D8wn0a2e19YcZe9Dq3jIWJLC9tVhOZSmDI2e9JziErGT/sNmJ6rbe+mnmq2dgUpbrBdw/AxRXj/4JRBfg00bEnbumE33ymmgRhse/x3W1q/OHEdER6/OSqHr9MnJAXA0uJFxW1N/o0i8vFEFYr6bQMrC8yrLzvxPVtWtnbI1O8xqiVwSufxJ7v2Rgr5jQxiNs9rYD4/sEnMbrTwvMKI4BF6APwfIDUCAICjV6XCLrT0KIB2eOIWVd35JvdCXIsa4FcHhxrpU8KxAzt2cSzhklI5iFyhlI5dybwHQSENRs0DcI+B2RfY7K7PqmlvwuUtChkPwdEoFo4KBmVRVAmwEc5Dxo3ZM+tsJHDmp+SOA2JjxgC/tfs8aQSR7uRRiMQCiCrOC+9ptt3t7E/jDAOoWAQ4pYZqaA3gF4GYD315PBq5jxLLH/l3WvVi/VdRx/0ntc17HKO5UErgwhCI+kE86hIdgxJnrJQCobnCLg671cVsr0C2qG2rfesQWtK2VxT2uC07BlbZ3bsm8fSgL7AfRRYmRQP2W06ebaE4P/+ffHGP5NQlirFi+zn3viQDK5Qj1QZwTC5xA0ceGa4UJUfUUIGsUQPwa4vuhHceBN/JAICxnUSkAnpIQU4uWYZT01YzT9N2lQNy9B3kHW3QtEfwIKCaI6xxrhejvP2tFcadRJcqnYk9/oHClt+3UQBpeKUdQ6xgcAfzOdcF4I8xj72BzHbfgHCil321BLqpqZg7LsQULuJkX5PhAnMb/JhJsh+U1rUOzvs7anlQORhmL2bATCZ7A0ZTFv6Uv/UEi5D0gcBvD2xZA5sObQOwz5lCD6p5QAWWIFSfkPt8N+be4u5aunXqg5Ybm/AOgHuuNBhLOb4871uu0Y/NIZaMq5ZzHjutIRiltJRPfBs6Y2j6W1xa1QPyso2e4Pwzjfd/cA0/Cg+rVkDkq2f4VAI9RbrHREeguEhyDxPDvWw5nR9O9K35Fq/41A+BijyVdWbUKD604GF64oBf/ZRjXhFY7XzozpBF4hbLHC73Zfz4ytXhrmr6ae+Etm/ZMI8vae5vX13wk8V9rO1Mxo6uorllmvj4HkEq4mz70LoIn6rKxHZoiTMwnrDt12isYv3OLBdkz+F8iXWzJoMyJcam5RfJJBIlrO64swvcy2fUtmNJkCTBsoMgIBQCHjvc2/c8Px3K4Ahhb9IRxYE10Jf4eoZusX3tXm/GUAb6s5LOsYfEgm7jwfJXGkec+VCV945YS9AO9vINTq3QS9PSJujSjlRoNev9ajT8p21QtYC02S42ezzcAaAl5hcFv7K85UXTlSYcRalY0BLRAKvy58/06AdwcjAaBKFbH9FYeBAzNx+8kofjGmsu4zYVTRI6LU2i7r3nnjqNAR0YxoMzB+AcfqYu4xIGoOwdNn0wlnnxDs9M4EM01q7TpICPuvvVs48GZz0P2U0MrML8FxThjIp4QDUiAcluWqreBdCcYkImxirir24o8A4cU6tr9ya4K6e7FK+9RkNv8lAj21oUiVRnt0ryfy58+tHxTczjCjQhiY0NYxwpaxqwE+WrPLHpj3SzfEntdsp1fwp2S5ah28oOrjF3u1cGBP9sBYDcKcf8M+/+GI/c0LIzQDRiAEx8/LX1o12B1SN4mJfkqm61vJz5dTa9dGqVd74RdilZ8FWG8iFqGDfTk501h1X8nkmYVlYyCZ834I5mb9n31atq7bSkTphGnqOzzIbffay0Z+5RvuZuafDCYnPSxeaMHe68JYlUjBgBAIySU8Snj+zgyePQCu/wQPbpBJLQBN17vI3jcdp+A4v/yDmZI591YCTQawoRKdFre6mXHxyIR9/UD546CFxTKCBj8Slma9swTR5UGfFI2udDG4ORN3fhyVV3FNbe5+LBGcsOkYa0Hkg3nIACgxvxagCZ7vvjCVwBIAACAASURBVDZ3bM0SHWRGCbNfC4RkS/dYssQ2zJzu79d8GLSMwEsAWkuC/sa+vzOIJmn5wAq8mq53gmTOso9ka35XAu4F0Q5anSE8RcRnNtfH5mu1Y8C1MpBsy+9JPt0ACgoO6Ry8kG3n6Mxo+odOK8Vip7L51wEaV+z8XsyTLDkNgQVgOpiCRFCiUf2+9DzhbXiY6Am5fG5DVZD42S9HvxQIwftGy7f2AImg6uH+/bSktAT4DZB4nRieJDzU3mX95qNjzaacN5GZg0qC2+l4cutgV5c7D2HygtXDZNWgDIBvaY5xUBFyWjoRm6mDS4MZLgOpbH4KQNM1X2MO2hL8sTpmT/r5SFoV7g4/aW39VU8vKG2ufjC/xYwLM42xuQF4oaPmSP+75OM7TNJmiZ2ICsIkONHsbyNo2PU0S7rJst2XZo3pfwXT+pVAaFr0/mC2Nj0IwJEAB18a/a2aWNDM6HUGPwvwavL47+v83OPzxo37n2z6CTnewmYv+EL7to5PpZQ8aXZjbI4O7GIxk1lvAgFX6M09CG4qyPvq4EwttyAqlhcz7/MZSD7O1bRdoTbCD/U28qJlDHlRJrH+y7NcI9maTxJRWo99+j3QOSWdGLyhnPp/rUydz4472NsfhAOYeBNCoSHVF/RyrmeXn4tKhf4yDwF8f83Q2N90ldwuw876SbOm4ArPInc3ssXxBD4AKFxZ7Bcj6GZEQAuA+4l5ORMt9Drs+cVUK0zlvAyYgwIxOoTggnTCCT7sZRmFVwtENwA4UK8D3Aaiiem4E42cC72bHTDoqZy7D5jnAKS7fPrjPvisOYnYK+UiN5XN/xOgoPyy0lH420Q0Jx23kz0BT3iVa2M13u5S8A5ga0tAjgdhx6C6VE9rK+ffOUsknoAnZ8xqdF6ij9rOV84G/sdTHV8codKRXMKbCN+7gCUfAKLd+8tRVlDdC+Dr4dNigN9f6676x7xxW/SqGUwq6x0L8NU6XjMQ0apatkbdmqA1oQZ8Q2GrZVk3SAAL9jZIn/1CPse5zfXWnfpsGORyMZDK5k8E089AqNPmA6FDSj5/VMK5rRzJrclXeBMx2F/MXOgCqXjQWxI4f3bCvqc3wEFJaG+otwskbSWJRhD5ZwHUX8rZSzBeYoEnYNlXVXpVxooWCMkW9yskcDMYDfqrpPXmI1Dy3NUMBEeBD9qWvVJUI9eX64SFvgS29xBYS0JWNwjXpuPOxSXvtsSFyVb3ECIO+i2MLBGiqGVBRbVBQ51d+9ORYVEbHyCTCl0/V7v/IO2nCLyUmY7LNDiPhk3tpKx7FTHOIkJMuW3C0+R9+I3msZuX3H9i/FtcU7suHydbDAPjWyA6DuDKr2TLaAehlQROba53nlbOfUiAFSkQmJmasu6zIBEHWHfHPt2hCK4lPsfAhZ6bbxkiB629fSe0qzqeamp1/8qEr2raxEvphLOHJuzPhD16KW8ay3vnEnCebrts21ubBi66WS4vfnIJb0WetzwEL67ujtnX3htywmIq6wa3boKTVeWDGX/LNDgHKwFmpgnvYhCvxBDb8RqJ+XII+jIYlhL88oF8ACA74m573+nTK692QsUJhEmt3o8EcfDueavyxVyNZcHihFkN1l1q0D4bZVJr9xGCxM8BbK7cDqEFne4h6S8Meks59kYAU1k3uJXyhG57DL4hk4idpduOwS8/A8k293qSODMETw5IJ5wnQ7BTMHH0G50jY471FwIFLaBVj/dIyhOaG6t+qxr443jJbL6JQLN02ggJ+10GnZNJ2GVNWO3tXitCIASV8gbbHZtJ4VxPVGjjWxF+/ycYBIZEOwmslUxPE6yT0wn6n6zf3gav2PlNWbeFAR1/JPLMfG+mIZYq1pe+zAt+7cHzfkXA//UFp+e19H46bm0ZlSI3PftrZvSJgUJDJ+89EDbrE04Pi5n5Kc9zf3D3jrVhnFgg1eplQPgRwMpfLxDQ2pxwglbSoYwftfBm1cL7OTP2pfU5I8F/Kut7IGj4SXQfed1nr/UGrYhSpc2NBTHyBCeXrNqE/MGHg+UZAO0SytOozkgezP8C0b+Z+L4YOXNm1NNqdfDFIaWy7mMMHEB6PlCPsm1/R3dDkw2dGr8N8O+K23XJs/Ke4H3nmoJIJRNYiQuTLfk9SVDwrlj5l+kn+aDvjohbf9CdsDj+mbdq6jbf6kEAh6iOx4abVY+nE46uV5cbdbmQV2W5xxLRMcy8NUBBnRfNMVPMIOF1EN3Ia9b+NvPFTSPdWjqyAiH4Qnh7KRp9zzsGjPMr7HZCUJfgaQK1kcV3zxrj/F3xI9YruA3H8n/WUoqY0EKgM5rj9sO9cqqXk1NZ3hzw2rSVj97gDzN+DceeUunZx72kd8BPD25DwfNmEnCEZjLWAna97hPEZJv3DTDfSEECt/rRxRJfyzQ6uko3F+Vx8HeNQMcw8Whm/B9VllAIbjtcDZL3jojHFukWjEUR+hmTIisQkrn8ccT0PQCHlbq5Mqx7m4j+wMyr8x3ubffsMuhfZfDhM02mWt21Wq5zEXxiuqs5YZ+sc6+prP9TQP5Epw0CFjLkkelE1Rs67RjsaDKQynbvSBAPMKC7bPfP0nFH67OcyubvANFUPUl+tDadsIO+C5EYx77RvrXtxE4F0SbE8psVdWWS6GEwfpNO2JGs0ho5gTDh31xrr/POA+M03b8WlT3dzK8w0SNg+XosEZs3gyioeBipkcp692hsdfv7PNyT70noEURNWffLDOgvVETiJ+u6Prijt/UmIhVo40zJDIxf8F5dXWz4SSB5TckgRS4kYJ/mhBO0X1Y+pmR5Ox/+7QB/Rzk4AGa+J9MQO1YHdl8wg8qN+cH5IyDELsT8dRBVRmtrCmrJ8C3k2T9rHkslXxntC3cbWxspgTBpkbuvsIKufIXqf5G+3lJ4D8f8HBPuZp9erRpiv9KXmgU6gvtxzMm5rrhkK6vJznsAXahLBQc5FPorJtIDEt55sxPVwWsMMwYoA5OyXfXE1jVE2l81BO/wg7LwykeyJX8cEV0J0nBzCYCEH4/y5yRobd29xvsiEe8iBB3NhOC6ZLQrNhJ8gO62BM+aOaa8r24+/kBGRiBMyuZPFqApAHYC4Cj/1KgDlMyYT+RfIvP0r6odY61RPDH4rO2msm4XAC1tbgmY3pxwLlVH83qkZNY/kyCDplPaWjkzsIbAZ42IO81RfReomleD99kMbEiGbWLw9QToPEbvIsJFzXHnetWxaMq6lzIwTTVuAY+oKx23a7RgKwYt9IIYmk9IiO3Eej6+FPFcNpeZ/z97XwIeV1W+/353maQbu0DFbmQmKYKAWFFApcgiq6JYBGmbmRTK5sIOClrKj0V2+KsIhWamLQWkIihVWVQQUUCqCBbaZCYtUChlKVCStsnc5f0/Z5JCgbaZ5Z6ZO+mcBx54npzzLe+5M/Pdc77v/RaJgVuT0cgvAoajKHGVDxBIiWfc8wzB+WSuuVLlbdo4lP+xDOt4+mvX3BYd9Gq1lcG1ZLyzSf+aop6U/hc9AvCcZCzyn/6n5jdjAmkOzRFiiSJj0vdckLdkxT5vbgVoo/NDojarnAickOYWETpXQeRkjXoJYsHSV619Hz1A3KD0NGeynzMoKuhQfCGBD8I4MxUzbwhcsE6BpExuxyfrLAxxqfrTYB+d6kqUrfpbvOuTV4663bq60uRK+r5080Ap90EU91wQKmEnvKcGIn91xUyYBt7QXc6XB2xFT5m8iNualvtW0QI2vVC1nz45yJbI8bR7uwDHAtT2bJB8jpSzZjXZf9GES01sFSLQ3OYcKMLrRGR3feaLQ+DuVMwK7D6/r5W1Il/TcqTuudZ2s3cRxQ5YlUO1vvZ8bG/5rmoTr7nRW0kQOaB/ZVYiV1fyxaUiAYKiSp66BDHXc9U92bdLglHPYkV/rI7jnxaD57QOkJr4XEAGZ6GuLF9FFx1ZZd0wY5ysKXVbml9mg9Hj3t53LFiquA2uF4gLQbI1ak3VoqAmtKoRaMm4M0AkCFoaHXnShzVxVkxKzn1Rd+/uav8M9l7JBT+EL2XZufvc2LZlb9AWvDNAIp3dC2JcDVJdPagrTC1BVUm2E78V3/vxzKa69qDo9wuxp/wBguqjkHG/CMHNJDRG54XA0DdXRNWmvgPgP75h3jirQf5QhJTQLplwN81he3hfp8HfajFSZAXI40qlk1UNXIZ1e7cQnKTFzl6hBPl4V3bt0fN22/JtjXrCI5qUCc9jyCB77ZaWPWio52Xz+uEzzYjrOuiyiPdmNqGrEl9UlQBxwkJuMzTi3gfJNTvT9l0pkDmdb5onz9tX1pbiZ2Ip91dMowB2KEXOxtfK0V3PmPPnHSueHvmVkRpv6z4chvlDUT0rBFuHMKHxWQFObY1aT5b7WlvbQ7+xrW5JO4eQmKub1rTwR02Vl/BvAP+YjEVU74IBOeJtHGsY3tMEtbS4JeWEUTHz7ulS/L1qS8Y9jOTVfQmrevaB6AT8K5ONdXretvRYXZBUlcMxqH3tjhbsMTAw2PfFMgzZ3af/VRHsDSC/rnki7wJcAOLvoPxHhFn4WGMY1ouronhtngysH4z1QU60OxcCOB+CYQWBX9BkPi++cW5rU/FkY9NI66W0d6wIC2q9nLeZRBfpfz7VVLc47zVVNjGRcRVvxJEAVf6GzgTVIpCRtwU8vjVmP1TE4qKXlDVASGTc74BUzSq03SkXgYRH8LcCc1EyZurJ/C3CKF1LJmU6tzdZd51iINOk4/eeb502u0leLUa+Ij2JROouJxkvZn1eawTqpOjhZMw+NK/5VTbppA42Op6zrxhmHXzvCxQ5QoDtA3VD5HXQf1CIJ3zD6IbnPTlQfzwSaecBCA7W+WZJMgXb/lGx3UMnt3En0/Bu0sZ9AM4R2GfrZoAM9BktUlgi7f0U4K4Ej5Fwlds7EJmUjFrqlKgso2wBQiLtqhLG6wBqjMQLxEzwJwEWWGJdW4keCQVaG8j0adNovDzZOxw+7w9E4MeF+GJyr9adI88WI7+l3T2Gwl/qOybNWdUNwRHJqK34FQbEiD/zzlYYOuwoEY4E8XkAiiSnbJ9vEPMBPAVDlvWs6fr9Hbtvpa7qBsRIZNZ+FbTUdaO2UlvVr8X3ve/Naqy7pxjQWpZwD/ruf7QFMZSjWmPmHzaX66WpHdwy67lnQ/B5AUL0IpEjUjpLF+fMR5+9snyBJNLeqYB/CaC3W1q+HywRtJP+PT4wd000snggH5FuCJN4R/bzBuV26uFpVz9LF9F85drUmDEq0TPvMbmju9H0TVWidWTei4qZKNBOdVuMWcWsSWTWjBBax/gwxgmosrKHlzUw+LDRBPA6IH8l+G/PsH4zp0FeLsavsK1JpJ2f5a4adA5ivud5Z8/epb69EDUqM1889xwQ/1fIurznCtrocVKqKfJ03msGwMTxjzxijfrU+CaD7vHoJc4aGxK33gKMnyZjpvarcO0BQl9woI7uNSXOFLRl3RTeJ5Cf22I9v7mcGnwUod6OaO6ZAKYXhF7+k1cY9dauM0dI3sl/6mRj2UTvSIJ36yJz6jPf8QZZw2d/qnpLtZQfk1/htsYatwWCIwX4dFiC7/UekZUgVE+L+Tat1hlNoqu8Nv+nsoSZkxe9t61pDnoNovV6tEcgx46ImvMLIezK2WYPXghyxxJc3OhSEj8dvJV1/U3bS5cO+WGXqaq/TLi7msLvA3I0iDAQRb0OGNN1BwlaA4SWtDuF5M/CkZAoSyDmSbaFRTNGS1n6sYf5wY+3u3ERtup62/SF42ZFI//OF4N4B2Piu7/XHaV7vnf47KZ6rZ0n8/W5qHmkNGe8owz4lxGykwBbFyWnTItE8A7JVwHjomTU/H25s7CDdDOecQ4VQu+zQ7TRtI5KNUjetOh9rar/FaSv68kiyZZUY0TxBmzWY+qLHJ5d6zaJxZmA7FxxMIi3ROSC1pg1U5ct2gKEvoTEW0PRcEnkF55jXjxmLN4pJDLXBXoY5J7Yzl088a4CqOk4n+lkLJJXq9kcY2LGU9nD9+oKWHoxZyYL+3OVJB4pZe97qWOdDkBU9UHIsqz79ew9EO91Za2GebuJaodedaOPR+TfgEQ1Gk/A/2ZXNDI/36vPRDqbAaRBi03EfBf+eXMa6xZpkV9lQhUV99LF2Nq03Z/0NRSstAedEDlJV+Ji8AFCL8/BwQRUElykguj5EPR0bWFtP28zPRrrD/tExrkQxKX9zSv27yOjlplPQHZKhtv30F2hNTjIVS5Yn0nGpOpaOasAakjGPUcEPwUxuNj9CMU6wRqKccnqnY1r8v0BDIXdfUYk0vw0xP2ftmTAvki2Tqwdb47KG/35PuHuu82hn/1mYFTNH9MnuCgZtQdsKXB/+G7q77nOw53um31XohUkWZKsgEe1Rq2Hgz6hCzZAyPVVcL4gMO4HuF0p4Je0llD3nSnb7Lx0RsM2q0qSNYAXx9uzcRFRyVda8kMEuKE1Zqtch02OKR3e+b7vKzv0DUNabdc8v5ruwhWxVf1eXduarJ8F4GtSzqoEfTsB1QkVxEOeYU3ubsDKagoUprZxO8fyroTPFo0QKYTOTzbaV/WnI5FxbgTxg/7mFfn3FRBekIxG1PNXGxtAQJ0q2XB/LJAWgJ+oHEjyJuF/PRW1nwoySAg0QIgvWjtaLOsuAF+oEFBrQS6F55818q4rHp4+fbqiTK6NjSAw4Q0OHbrK+SUgqr22jpHt6rGGbepIOZHhCNDVm+lOLIeBCcmo/U8dTuqQ2bL4zWE0t9oLwE8BaGkLrMPuAmU+QuCSwVtaC6opAS6RcfaFj3kQfLJAfwubLs7IZHTwso0tOiydrtsRoxXtsaaTWs7u6rFPn7fb5pmcmO9mqdYBUzI9BxPGdYTsLKhYEuNTtKzjUmPkxXxt729eYAHChIWMDLadXxpGrmVz2YeIvOb7/u9EcGuQHQXL7kiZFcYzziVCOQvgkKBVC+AScnwyZv1mY7JbMu6dJI8LWvd68khimuFbN7SOzdUQh36orHTDrJ9oiJxGIK88jtA7tREDCbaLmL806ozbC6l6qaS/qgoIlnsGmasCCuw79KM+CXlXa2Pk+I352pzuOdaEMZdAXpTZBWK2GsC1yZg94MnjCsRlo9PjS7mn4XsngfgmSVVuXIEht43sMU+fHlCeT2APdyLjnAfiygogQoi8RODy1d1v3zlvt+03y1KcYnHPNSyBqO5vqqVy4IPEc6lGe48NCW5ud75iAH+BaPmCy6kk8C8DOKM1Zj8RuHMaBH73JW4dybrnCTEVgm00qAihSFlJ8NZsxLrqjlFSFQRLLWlnHx+4QZCjrNYzCNcHDpzVaD+2IQUtGedZjf1sFnjg1NmxyDN6nBuYUicsfGPokPptjhf6FwIyUmcAuVEExTg/GTX7vZ7KZwcCCRDi7dkfCuRqzTXCG/JHEbM8IpSbWhutohjI8gFpoM9JZJzfgjha08P8OsGjU7HIkx/FMZ52HhTgYE161atdD4HpI1+xrp5+QPG9Icq1/4rwBq53rSB3v62Pta9cDhWiR2QtiBQt86xqaKme632Qcc8TQL1hazriBwk8nIrZX/solJPTzj4moKp+dOQPEYL7klH7W4VsYW3uBwj0McKeDmC8ru+3jeJNOATPTTVGbix1T0oOEOJpZ7xAZgFU0VJZh09cZJLzW5uKo/Utq7EhVtaSdk8geA2A4IlWCMUf/utkzPpQZ8Z42m0RULEmbqULGgIP+Ib3w9kNhTHT6bKnP7kt7W6SQtUjI0y9SvozO8C/iwPx70hGI/r6cARo7eQONhq+e6NmKt53CZ6dikUUZ8n7I57O3i6UY3W8lPVe13rnpBrr7ggQrs1OVI7+2nEPh4HLy+08oRhM2ZyK2Y+WorukAOGwNOt2hHt77u1T4zHxhhykIccYjvlwtdwrl7JJuteqY7GhdVs/DmCDVwEB6F/ginXEnL6yLZXUk8i4DwhwkLYe7MTbYuDy1qitgpDQj0Q6OweQ72y+wUHfFhEuhXemYhFdibOBPguJjKMojn8EaLsO8gn8ORW1Dl2XnX7iEu7g+e58UM+1IIBn3TXWfnP2EJWHUBslIHDaQg5dM8g7RHyW94SbcNUp0ApYE/8Uk55iXSgpQIinnesFOKXMx6FZ+vLNF5ebDz1aBcfGxW5Mude1pN0ZBJu1HJeKrCF5cypmn638iqd7pgkMVf6YX7vhosCQB7Mwj60GUqREhzcd5Lkgw0DhWhTagS4SrCVwTSpqqwqOUI9cmRvdeSI4RKOhqlT7umTMVv1sEG/PXg+RkzVly2dFjNbWqHmqRn82K9HjH6E1+pPeIWLkiOB0XUdtCNNuAup7t99S841tSNEBQiLtfpvwfya6GLw2YDGBN0BMTMWsPwdZ67lZPa0bcbbvNEiVGwbbFvh9ffx1MhY5buqCBbazxR53QPBtjbivAOTcZMy6XaOOQETH27sPFjEVja3ekrlArC2nEFkuYKI1Zj9UTq3F6Iqns5NEjKt09ULotUnmjYya350u4ibS2bv6TpuKMbe/NW90Ra0R86Q62S77c65if1ccQWn3IBG5HaCm79gNeScZn7hgVpE5ekUFCBMWcujQiHMVRMoVZXoUPC8ezk422X+u2CYPcMWJtKO6yMX0uMllEPwEvsQInCuiLZJWCVaPJ6P2V/T4EZzU+MKuHSUSuQ8ileINCc4ZHZLIp0zL/sZtO8vrOsQHKTORcR4D8SWNCWk9IK6GySXwjUsAfipI+9fJEqC9NWY36ZBdkwk0dzgHGj7UteduAMzyYCK/GrSleV4xXCMFBwiKDz67hXuGCBTznX56SSIL4ROEXFxqwkV5NqN6tbS0OV+igb/r8yDXqVF9hx6rS4cA77i+dejsJtHVvCYQ0xNpxbrmqiYrRwUicOAKuR+wpiRjoihtQzsmt3Fvy3AfoM7mWSK/zgFAqlwVPUOwXzURiukBQa/URNrZn8DFAuxblisHgcpjuSDyrnXDjHHiFOJdwQFCc7pnVwPG9egtT9M9soQ8KsLptYdWN9S98hNpR30R66LJXsdsqS+wJO5NNoa7POv7adathvsjAucACJygqjxPStm0rFb5CMNgXfHzEpKtymFtS8b9LclvatSl+/PzZjJml/H4WyNSIRfdnHH2E+Kn0lsGqT0vgcBDAuvMQnvRFBQgKAYxWu4PdDb4eX9fBR6Ax1SDmtYGW2XY10YZEGjOOGcbhCp5rMIhritrd5oTHdZvk5tKOte82NnPMHPHjLWrhXw2gnjK93H2rLH2P/KZXqk5fU3HXoUeZkPtbolhnNnaYN6gXVFNQQ6BviDhUhF8GSzDdYPgInGt/1dI5V9BAcKUTM9uvi+/g5SlF/b/aOL01M62xiPv2pP6UQQUZfbQOndtWa6PAoZfsWmmYvaFAYsNVNykjjUjbUYuJfkhXohAlQxAYSIyx5HsRXMaBuvt21Eids1tzuWGkSt7rLbh21GrfoYUdgRdbU6Gzd4pS5yv+B5/Achn9NvGJYbwGzOjdQvz1ZV3gKBaW5qd7k8EOD9f4SXMewu+e3yyaVAtIbEEEItZqvqdv5z2fgXh1GLWV2wN0emuXTl8zh47hrd2m5TmtHe4IVTVFdoIoiq2BzoVC941RCbO3Nn8Y5grmCY9yyHWYPc1AMN0whG0bFJuHhUzT8+nPXvQujd3eX2Jiyq/ZFvdWKjKQ29Y5NI5O+bHcZF3gDD1RQ53HPd/2p0QeD69w2fF6kNf3qR7MyslP96e3VNEguNgV4TYeT9pRXrt+ZOSTZG5Yf7xmJJh1KerWueq5KTaKBABEfxDYMVnRiVT4NLyTc+RgGVPAIw55VNauibxuWeNkbZ0HIuV0JJ2DqHgj/qvGuQt2zZ3nzFaVBDb78j7a7sl41xC4if9SixxAn3viFF31D0wfbrUWjWXiGWxy1WGPeH+RoDQlwr2+siXPN/db3bTYHX/G8rRyx6J/QXuX6rx+iYUoAo8Egclo9bfRESFnaEck9vW7GQa1j8AGRVKAz9u1KOAdWzYK0WqBMuizJw2jcZL3+05VAzzD0UJKGCRGMb01gbz4nyW5Bcg9FLjqnvpunyEFj2HbOnK2nPnBdSqsmg7NvOF6sespcM9AIT6MQv9IHHIqJj1lzAfj058YfVw2677D8Dg+12EfoeCM1CI13zb2is1RlYEJzVYSeqa7qW0e6AIquMUVHBga4P1SJiDrmB3KJzSJpCRoUu8E+DzQ303NFjbk4xag/I5bc0rQIi3uYeLQa2RDYF7TNM6e+bO8pIGQGoiC0SgZXF2HE3jQYChbjlM8F+GaU9u3VnaCnSxrNMnL+puNC0z1DaWFZASlHmG1xT2Blzxtp6xIsZsCD5fgqval5JYSYNfmxWN/Fu7spqCfhGIL1o7WmzrWhBaO2nSw2GpsfYD/RmUV4CQSDvdOk8Pct3DPJyYarL+2J/Btb+XB4FcNUO9Fwd5S3k0FqFFRHGNH5+KWvcVsbp8S3pP4F4AMLZ8SgeuJhEsam2wds3nDaiSKEzJuEf7wJ0gQ9u6W3xO7XTaZ83bbbdsJbGq6f4AgZYMD/PhzRRyuC5cCGRTMbvfG4F+A4REhiNAV2dp0Sr6PDfVFLlVFxg1ucUhMCXjHOpTZgOK9S+UYz59/9xUU93iUFrXZ9TEFzjctt3lYbax2mxznOwnb//0kLwSrSrlW3xpz1hxjasBHFkpG/rR+yYFk1PR/t8kQ2r/gDUrnsmeJBT17OhraCfOyGR08LJNgdh/gJBWdLBs0bUThNwnvnN2smnQEl06anKLQ+DE/3Xt4NXXTwNYrp4bhRi6kpAzUzEr9NniiYx7C1hlZaOF7EQF5pK8JdUYUZ1kQz1a2rKTach12qu/ikBBIDc5Yk5f14a9CBG1JZoQSLRxZxiuem6+oUkFCJmZilknlhogvApQU6c56SC8H6VidfN0gVCTWxoCiQ43AZ+KWltfJFuEiYTc43nOatdOCAAAIABJREFUuXPGDlpaxPKyLklkHA8sQ9+SsnpVcWV+MmaXqdlN8b5OWrx2jGVY10D03ikXYeEqkGcmGyPJItbWlpQBgXjanSD0f6aPmFCWJ2PWTkUHCPGOns+Ib/xVCze/iEcf84aJGQ87x3oZnoXQqmhOs8EU7xqSR4fGSGI5RX6Silm6s31Ldrk32VOeLllQTcDHEPCF46ohua4lnZ1C5DowanrRKvzhIHAf4Z0zK1bfUfjq2opyIBB/ZGm9fGqnFCATNJVGv2WIdcDMqGyUWXGTVwx9R6NxHc0kCLb7kPjsmP1EOcCu6SgegXjaucwAzmNIOOZJ/MEzrJZqOBpNpB2VQKntmLD4XR0AK0XuTUYtrdneQaCkejR0+26rCI4IQl7JMggXBq5MRu2LSpZVE6AVgcQiZ19aTAqkUYOiLMhUsjFy8sZkbzpASDvqx/uLGgwjiMdGzrW+WiNE0oBuwCJVB0+BcVM4iJPkVQguTEYtxUgY+pHIuC+DHBF6Q6vSQFmWjFkjq8H0eHs2LpDLIAjDKcLfTNs69bbRsqgasNucbcxR32dcdYqvSOv6zRksAqsnkzF7n+IChIzzL1BHHa+87nr+kXPGRhYU4VBtSZkR6CV+ceaKyHFlVv1xdYLHu95Ycci8fUco4q5Qj/GkNTrtviwCbeVKoQZAs3EkXnsxZo18VMTVrKpk8RP+uWzQkE/s8LBA9itZWIkCSN41KmafEGZisRJdHFDL+zhp5gPcIXDHBE8no/beBQcI8Tbny2JIEmBD8EbJS8moNTpwuTWB2hCYsoRf8X13BogmbUr6FSxvkjgl1Wj9tt+pIZiQSLsTAf4SwBYhMGcgmvCeQE5rjVlzq8G5eDu/JeLdXOGy4cX0MTXVVOuSWw3PzDobExn3RZAaqLulw/DM5pljZYOt1Dd6ZBFP91wmML4feFcygU/gZ6louNvyVtPDUy5b42nnQQAHi56jrk27ISB8PptsjHy2XP6Wqqcv/0DVwIc+275UXyu03qPI/amo9c0K6S9YbSLtPAORPUDqOC7epD0EVP+Kh1Mx+2sFG15bUFEEEh3O5SDO11AN1QnBjcmovcE+Sxt9SFsy7r06MtcFcIfAGlqrXKjo81aU8vgSd5K4vAGCStAvZz1fjp7dZP2pKOMrsCih7YquAs6EVWU/R6RhMzve4R4uPu/Vkfjdv6+yEsAZyZil2o3XRhUhEH+E9can3E4dieIicl/rRoLssgcIAFYnY/bQKtqbmqnrIVDBN6AFyZgdal77jz4otQChDB+dKgsQFCKJjPM0iHFlQOcDFeoEjvhvMmbvVVa9NWWBIZBIO6sBDA5MYJ+gUAUIpP9QqrGudsQV9C6XSV5z2jvdgCJOol0mlevUjE/G7L+VWWfR6qYuoJ3d0nlCIJ8rWkhtYf8ICBaMbLD2mV4FiYrrnEmknf0BPNq/c4HOcAiekYpFbgpUak1Y2RCIt2cfEpGDg1ZYcICQa9QTce+BBM8hTt87ItVUX2vKFPQul0leX9nNO2VNvBP8ORm1A/9g6ISsr4eJes5306mnJpsLTdiH3RaTV6oJi0TGeRjEQeWymcR7o2LW1rXKhXIhHrye5nb3CEM4P3jJuN+OWsfMEHE+KnuDVwyT29bsZBq24rg/IGhj3DXW0Dl7iDoqqY0qRSCR8X4A+jeWzXzBfsmo/c+y6QtAUXO78xVDmARk5wDE1URsDAFyCSnxasvKT2ScfUFsMHNcx2aT/EGqMfJzHbJrMsuDwISFHDq0zu3UoO2v4mUntY4d8rGGchsMEFrasnv4ghkistH6yGKNTMbssmfvFmtrbd2GEZi6YPlgZ8tPlCvIm+8Os46bs2N1BZXx9p7viphXh4led4A+z8thyDnJBuvOavJv0goOsTrdu8rV6bGr3ho8b4SEnjukmvawErYm0o6qRAl6PGWa/tTbdq57Lq8ThF4OBKhoc4+gLakFCEEjWhl5iYxzDgjVjlT3GN8atR4TER0fDG22xzuyp4gvlwAIa6tsbb6XV7C8AZGfJqPmLeXVW5o2ktKScRU7nvZcBMI4OxUzVWfA2qhyBLQECMSzJL6/oVO4Db7NJ9qcg2jwBoHsGjSetQAhaEQrI29ShttbdF/Xqp34o0dr6uwmeVWrHg3C42nnLIH8GOC2GsTXRL6PgKykz8tTTXbV/QBObuNOprgzIDhc54a60r3DnOiwN3TqqMkuDwI6AgSCz4svZySb7D/ndYJQCxDKs9nVrKUsAYLgj16dNXX2iFqAUM3Pil7bqzhAWMadzB5vBshagKD3IRkw0nUECAAWGj7OmNlk/yWvAKF2xTBgnidtjsTbnXNFcJU2BR8Irs4rhvbsKSK1Kwb9z0ftiqE/jH0xzpkVNa/tb17t7+FHQEuAUOgVg0pSpCHqTu8LQUNWu2IIGtHyy5u6gIOdLd3yJCkamO8OqSUpln+Xq0bjclDOSTZWX5Ki2eX+WlieFtBb1VuDr68lKVbNQ70xQ7UECEBhSYoti/lJWt4ckF8NGlF3mDW02jLSg8ag2uXF27M/FJEbyuZHVZY5rv2KATMJqZU56n1OpEMMxlsb7Mf16glWernLHEX4g9Zorcwx2F0srzSdZY5rveyku/Itc8wRJdV5vwF4VNAQ0JcjUk1WjSgpaGDLJK9GlJQf0In/rRmBertGlJQfXCXMUkRJ7mG3xQZXFVFSvN35swgOLMHxwpYS742sESUVhlnIZk9ud480hfdrMKswoiRlgK5mTSQeSjXWuolp2OSyiExkst8DjetqVMubhrtGtVyWx1H1Fa06quV42hkvwCNlQmidGscHz5wVi6j247VRhQjE085DAgTOKFsw1bLOAAGQ1cmYVWvWVIUPqDI516wJ2LPs5gsWJKO1Zk1lxz3sCquxWVM6uwDl7tGRa9bEZ5Ox6mmXHvZHr9z2bRbNmlS7Z/+VV4alDhjTXW6Aa/pKQyCRyTbDl+sq1u5ZrKNnR6XW7rm0bRxYq6ssQGhu7z7CEPO3FWn3TLxNS85I7WwpGv3aqCIE4ktZb7ghavecaHcuheAHAIYFiqPAh+DKZIP940Dl1oRpRyCedh4EcLCog91yD8WkmHsDsj9bbtXF6kuknfv6qHTNYmXU1m0cAYG4FNyfjFrfqhacKtguHYT6Bw+nYrUr3mp5XtbZGU/3/EzEOBeEEajtRKcP3Dir0f7JhuRu9Iu+pc35Eg1JAWwI1CAlTOSlZNQaHbjcmkBtCCSWOvvDwy0gmrQp6VewvEnilFSjpd7AQj9a0u4JBFV73S1Cb2wVGkjgPXr+abPG1s2tBvOb291jDPBmCLarmL1kmwGZOrPRfqxiNtQUF4xAIuO+CHJUwQv7WUCwg540zxprb7Bx2CbfBBMZ518gPh+0UYC8LoZ/ZGtDZEHwsmsSg0ZAVS68lHbmishxQcsuWJ7g8a43Vhwyb98RoW88M560Rqfdl0UwvGA/awv6RYDEay/GrJGPirj9Tq7whAn/XDZoyCd2eFgg+1XYFJC8a1TMPqHW+rnSO5Gf/slt2b0NQ+4XYPv8VhQwq58ruk0HCGnnCQBfLEBdvlPVUddjI6PWV2sPab6QVW5ec7pnV4FxkwCquUyFh7wKwYXJqDWrwobkpT6Rdl8GOCKvybVJBSIgy5Ixa2SBiyoyPd6ejQvkMgg+WRED1lNK4jER/9RkrO6FSttS079pBPrKyv+K3u9eHVe7TyZj9j4bs2LTAUK7ewuEcR0JNQTbDUi8NWarIKQ2QoxAPO1cZgDnEbDCYCaJP3iG1TInKqFvQNOXh/CNMOA24Gwg7k022qHPPzjxf107uIPqZpaLNTGPfXYhxpXJqHlRHnNrUyqIgCLUIpEUoDFwM4gsIMlko3VKUQHClAx38+mqel0dd2Y+wHl85dV4raIh8K0PTODETHfUpnkNgPD8yBHLKfKTVMxqDcxRTYImLc6Os0x5WpP4zVqs73LcrF0i/w47CC1pd4pP/l+YrpoI3Ed458yK1XeEHb/N1T5VuSCup/IAJwABJyf2gvqW4fgHzPx03cKiAgS1KJF2XwWo51iMXEIxLkjFrHmb60MQdr/j6WyLiHEdyC3DZCsh93iec+6csYOWhsmuDdmSSDuepg942F3XaZ+fjNmhrw6Z9CLHWK53DciwnXSsgsEzkw2RpM5NqskuHoF42p0g9H+mj65dlidj1k6bsrDfO4142r1NwCnFu9nvyt/Bt85KNsmSfmfWJpQVgROXcAfP86YBPLWsivNTtpKQM1Ox8Nd0JzLuzSBPzs+t2qx8EKDIzamoFcbn8kPmt2Syk9nLPLptPn6VdQ75qzrDvvjmKriqKysuIVDWnO5uMGgqzpmv6zKH4MxULHJiSQFCIrNmBGi/rMtIAKvo89xUU+RWjTpqootAoKWt+zCKObuiZVmbtns+Lf/c1Ji6xUW4V7YlE1/gcNt2l5dN4WagiJY1PDVGVoTZ1fhSjoXjXiNSno6NhWMhbxrCyTOj9gOFr62t0IlAPOOeJOTVALSd3JqwRtwWk032MOn3BEGBkEg7ivWwThcgIvKa7+HEWhMnXQgXLlc17BoScVpE5FeFry7TCpFuAsenopYiJArvICWRcV4AZGx4jawmy7goGbV3hSLPCvGYknGP9sm7dH53luy+z5O7HDs1bzfJliyrJiAQBOJt7uEwcZuQOsuje5Ixu74/g/MKEKZknEN9Qi/FreBemtZZqTHyYn9G1/6uH4GWjuw43xfVHGRr/dqK1yDAv3zfb041hfsUYfKi7kbTMtuK97S2ch0Cnus1zd6lvj3MiMTbesaKGOr0TQOPTKCerzTF+tptUQl9smegXodUWHwpR8PNXi8wjtZpogBfa43ZD/WnI68AAbk3IFcR02g7RcgZakhL187m3HlSi2b72zidfycpLR3uASD+olNPULJJHDIqZv0lzJwaE19YPdy2I/8BsGNQfm+OcoR4zbetvcJ8vdBLLOYeKIJ+v4BDsYeCA1sbrEck5CcyocBKoxHfT7OuE94JAs7UqEaJ7klGrUH5nMDlFyCo9s8d3sX0/WmaDQd974hRd9Q9MH26+Lp11eRvGIFEmp+AuPeA+HJ1YMSXPN/db3bT4FdDay8p8Yy7vyAXdAXLpx5apwM2TOCROCgZtf4W5h+zyW1rdjIN65+AVAWJE8nHROxvJ2PyZsA7VhOXJwLTptF46bveoWLwD3kuKXoagempmH1xPgLyDhCmvsjh2az7PxHozcZVXwI+Dks12g/n40BtTvAIxNuze4qIautcNUMMmdi6s3lHPlFxpZyKv9Adk4iZArFvpWyoZr0C/EPEis+MSia0fuROW70TAFZVx0QxuWfrzpFnQ4vrADesJe0cQuSu8XW/PLxl29buM0bLa/lAmneAMGkFh5id7kUCXJCP4FLmEFgpBo5LNth/LkVObW3hCOSORzPOzQI5qfDVFV3R6a6xhs/ZQ1ZX1IpNKSelOd1zuCHm7QC2Cq2d4TTsXRpyQmpn809hDgLV96T1nrsCgqHhhHEjVpG3jIzZp4X5mq6q8CzA2ETb2oNg2HeVqRT2CneNdVm+35N5BwjK3ymZnt18mvdp6fD4UUAFC0F8Lxmz/1YA1rWpJSKgqheG1uXyTXRHsiVausHlVyRj4W4jnshwhNC5jJBJOgAYqDIJzhGxL0xGZVmYfWxOO5cbwI/CbONGbPPtqFU/Q8SpQtur1uRE2tkf4C8A2U2/E9JhiHf0zOjGmRM//jNcgFUtizmMlvsDEJcWsKy4qQIPkL/T409TTfbfixNSW1UoAs3tzjmGQNXfVuPwXLE+GfYeDYpfHcS1mhqhVeO+bdpm8ikYclYyav8zzM7FF3btKHX1ywCGomdJwVgZPCvZELm+4HW1BUUh0Jxx9jPUb6ngyyD0s4IKLhLX+n+tY6UzX4MLOkFQQhNpfppwrxfgkHyVlDAvC1GdxzC9tcF+vAQ5taV5IpBIOypRSUfvDWXBusRTfacTIvcmo1bYaG0/hH5vtrL7IwHOATAkz63ZXKetJnDNMFhX/DwmPWEGoSXt3EtAZ3ma7s/Pm8mYHXxL4TBvWoVsa85wP6E7TYD9dTRD/JhbIg+C3lmFdvAsOECYuoB2dgv3DBH8rEzH0IrA4wkRd3prdJBqHFUbmhCItzlfFgOPaRIPgHf3ypZjdekQ4B2ShyUbI0/p0hGE3FylCFxVznRUEPIGsIz7AWtK2DPs4+nsFw3IH6mVN0R+3bvP/I62/RZrv2RUQn1So833MglOLOX+8NyL+5KVI2VQ65O4IPKedcOMcYVdIRUcIChnJizk0GF13pUETyuDc0qFB/CF3DFjLXFRG+SJtKPIZ2J6FHCZiHERwRiIczVyahCCx5NRW/VPD/U4/n/cob7eVSyQXwy1oZUyjnyq27K/cefO8nqlTMhXb6I9+3eI7Kei33zXFDivB8TVNKRDyP8D8KkC1+c1XQTtrVG7Ka/JtUkFI9Dc4Rxo+LnrRZVzoP9aIRdP8lddWfu8ebtJV6EGF/0wxzvcb4nvXwlItFClJcxfKcB3W6PWw2HOZC7Bv4otPYys2zHjqp4bmo4Y+etkLHLcNNJ6OePd0dfCVI+/IitI/7xULBL6UrPJbc5BpmAWBHo6pupBWL9UYrlPTJ7VZIeerKsl404meRWAHfQBI/NGRs3vThdxE+nsXYDoOkV4YwWskX8K+XWOPpw1SVY8KGn3IBG5HaCm79gN2c4MDeP8VIP122I8KzpAUMriaUflIpwCoF9O52KM28iaLH355ovLzYcePUDcAOVu1qIS6eytgEzWch8mWEPi5lTMPrv3uemZJjDO1NmIBJAHszCPnRuT98K+sfE252IxcR6IQWG3tSz2CdZCcHWywdZOzFaqPyekuYUNd57mnKxVAK5LxuxLlL2JtHMdgVMEWp6XLESSyailvtdrIwAExj9Ca/RI7xAh7gVZjiuFdVarXjXqe1d91xY1SgoQciVxEXcuVGKOoKyZuz7l26ZvPlRIRmZRCG0Gi9SV0dA6VyWB7qHHXS4A7MPfv0fupe5WpCAHa8tjId4GcEWy0b5Gj0/BSo2ns7MFchwAO1jJVSaNcGHwjmQ00lwNlicy3jkgfwRwG032+oA8nIyah607NT0lw+176CrGvXGadD7rDrP2m7NjiDlFNDketFhV+efb3sHi856gZW9anso18O/r6rEnltKIq6QAofdtcO14wJwllaAVJdSd9h9SjZH/lhf8gaWtpcM9gT7VD2nwfQIIB5K7XvhQ3X+iPZsQw7iWpLZmUAQe8A3rh7MbJNSNfdY9TS3tbpLCEzbjIEE9Kyo4iFfDJ2zi4u4myzRvEOBQjfa+25t7ZSXX1xFPZ28XyrEQLQHlClLOTjVad2j0a8CLVoy0hsjhBC4rt7MEXzYpk2Y22iUlnZccICjHExnvB/D9azQ9rJvClgT+JpBfJmPWb8q9CQNFXyLj/BbMlWcF8jx8CBeRFTD9o5NjPl5VEE87D0rvKULwenuNyNLH9FHLraumV8F1VHwp6+F61wJMaDo+Du8jq64VfKZo26qjq2ovH+qhcmleyrjnCaCuQXQdG6vvt4dTMftrHwVjctrZxwTu1ZT3oPT+LhWzvxnqTQixcS3t7jG+8Ht9ZYy6vt82jADhEDw31Ri5sVSIAjM80e6cB8GVpRpUxHoC8jIEl4tr3lm7cigMwUQ6uxdEbgH1HVcmY/aeG7Kqud35iqGaF2m8niL5tCHyw9aY/URhyFRm9nef49Z1g9xzkaO6pi4+iso4t3GtKwncmo1YV90xSt4Jm3EbsiexyNkXJm+AiL52zoTrAwfO2shbYEvGeZbE7prwWuDZnDp7dKSqerJowiJvsRMWvjF0SP02xwv9C/uadQX2G5u3EWKcn4yaKmm25BGY8SofYYjt/EKMinH4r4DI70B/RjKWa6tbG3kgEM84lwjlLICBE/YI1H2yHNfaYG30/i3enr1TJHf3rmsQwMXiWddXS/A4ZRm38Xr8EwT+6SAGdsmZoA0+bzIG2bfPHCEqbyT0I8coa7oq8Ut1xAvsO/TjjssdyZilrpw2OJoX9xxrmsZcQkv+l+ppcm0yFv5E0bA8MOpli2KcZADfIDm8EnYRvHV1j/29UvIO1rc70Ic7vmjtaLFy91b7VAIcqGNKcikgZ4283Xq41jJ607vQsvjNYTS3VDzgqnpBx8h29VjDNvWwJjJrRoC2Kq/UN4jlMDAh7FS96wNw2hscuroLexmeq46wv6oPnIpKfgQWpg8aYv37pu0Lr9GulOU5qmwf83SXppqwRtwWk1c25mdf3xRFm6vpioOzu3rs04upn6/U3lRCL0mZknEPJng9RMZUqhqJ5JPwvONTuwx6MSgcAg0QoLLTX8TecNz5EG10vf37TrwFwRzbsKbPaBBVIlQbG0AgnsnGhaIYMXXVb1+fjNln9Qd+c3vPeYYYmq+nJGkPMc+b8Ul5qz97wvL3CXfTrG/q2tYaXJ+C4GtgVTbQ+hicBCiCB1x0x7sbhq6cJ+KFBfP+7Ji6nNs5q72rVJ5If3NL+bsQ57U22v32RElknBtA/LAUXRtfK6or5QXJqDVLj/zql3rCSm5hv+NeJD4SFf3NE3kDvv/1ZMz+V5AcQcEGCGq/SWnJuAdD5Pck6yr4CCje8mx2G2uHuduGvxa+EjglMs6FOhtvjYxaZj7tY/vKtlZoPa4V+KD1mWRMXqgE1qXonECag9Pu2YaBaSAGlyKr4mt7OTEuWR21rqmmwGAdbqoXDcT9n+ZgjXVi7XhzVN7ob78m3H23OfSz39THByO4KBm1y56F35/fYfh7y5scxlXu6yDU75y+/jL9OCuA6lHydR0EgsEHCH3OJDLud0DeCmBY5TdTfuW55k/GjMU7+fxgVd5e/RYk0j2fphhXCXGEDm2FULaqH8ChmeyRgKGysrU9kwAzXau6xs0bt01VniqpPijOlk4GMLYEuKWOfdMo8z2Aq+xVdkOhfPAabSpIdC8pkvMfgTQUtLCwySTkG6uj5h/zDaBaMm6apC5G2/ku/fPmNNYtKsyNgTl7GmksXYytTcu5GJDvhcDLToiclIxafX06grVI45cx0JJ2p5D8WUWPXvrwIrnUNOUkOtlFrWOHLA8WxuqTFs+4cQFboToXaBn8XCHJovEOxsR3fw9grBZz+oR6vhw+u8lSJE3VOdR9Z9o73Dd4BSg7aSToCQQfAu8I+CpN48epMeb8II8/AzGwACHxjHOoEFqfHQKLYVhfTzVIOl/TWjqy4+jL0/nOL3CeumJvSTVaqQLXDbjpU1/k8B7P/bR4vFVUrkGlB/GWiFzQGrNU0zctQ9OPwwe2JtLeqYCvEq103XMXAkyPQH5H4Y3s7Hoh9dmt3y1k8UCZu14W9nRNPq0w6q1dC8lKnzaNxrKJ3pHs7fio82rK8QZZw2d/SlZq8r0sYicv4raW4cZ9A18X4NMaW3QX5w+xUkSe98n5PVybvLNpi6rJ/diQw5MXvbetaQ56TTPXS4/AO3bE7XXzC0mwVlUvfrf3PMDgic5yt8b4qeG/e0Pr2E+ohMjNbkzt4Jau734aIj8gqfhiytlaYGN4vw4Y05Mx81c6N0R7gKCM7wsSFI94OOq6BWkQv3HFv2PZssjiza2nQ7wj+3nxMRcQPZ0bBRfRfOXa1JgxBRHeTF7U3Whapup0dqTOhx6Cq5JR+3ytOsokXFWBCK1jCHwOMA4AqJo+leVzvQEXVUnp6yD/CjEXuD3GPXN2E70VKuXCOe2oZF7Nz4zcT8M8u5DTA+W+ItgSxz0HAtXlMfBBsB0+JqaaIrpOKQK3OQiBqofCiBHZsTaN4yk4JkQlx28Bxk91BwcKw7J9kSTS7omq4QjAEOQk9D4+iopXiAW0rWtTY2SzOE1Qb+ovTfSOEFAd5+sYvpjcq3XnyLPFCG9u7znGMMxfgHrehnptkm7f4JGzGsLfKTBfDPvux78hIiOFGEfgG2X8fCuysvkg/wVDltE0fzeQPk+JjPNVUP4AUOeb4woacnqxXfdalnAPeq7if9GTLEc5qjVm/kFEVBA44Ic6NXA89xwKxmmm0i4QS1GnOGclY9ZtBS4sanrZAgRlXS5xEZhd5o5WmwZG4JHyW6HXnmysu6goFKto0aQMtzfpXSfIcf7rGL/zfOf02U2DXy1GeHwpd4TnXSGkPj7+XEUDHk7GbJ0c+sW4H8gadRJjmMa+Yph1JPcWUCWiBn3F9zrAB4V4wge6QT6ZaqpbHIgDIROSSDsPQHCwzsoFkinY9o9SY0RV8xQ8JrdxJ9Nwb1LZ7AUvzmOBQOYQ5tnvN1zLY021Tom3O5dAOFZEvgXCDJEfqtPmZF0JiRvys6wBgjKgOe0cYhBzw5C4+BFAugA8Chh/LMfRTaUeuvhSjhXHXQBB4MyJyidSThj1qnl3Kb0PVDIYyGsEsqtGnDoVNfhALuFS1SGD2tfuaJv2aBJDfIEB5jp2KuKlvQXYKh98CbwrwNMQPOb73jOmmI4IVgutl1ZF8Vq+2fb56ArbnL5SYHW1oO/kU7CQwLmpqP1Asf7nekOkvWNFqLrr6hhd9P3PD9QgUAEWb8+eIhAVTI+HYKgOEIuXKW/74PGzYvZDxcsofGXZAwT1CxLPOF8QiEqu2CBHf+FuBLMiR+ACeRvCZyByY7LBmh+M5HBIUcQ7Q/b0viGiqfWoYAWI45Ix+2+leDzhn8sGDfvE8FsIfqgDZCkyN7BW1W88bnRbR8/crToofkv2n5RJr2OwrFq7lWUbQz1P8mrRbpp0Xcfvsrj6vdam7bqquRKhEAynLOQ2fr17H4gv6byuUW/nnW++dvK8fUesLcS+j85NLOX+cF1V7hb0aVFOFX3/m6ufjdw/79jqIbbKB894h3s4fPxQwM9BsLXOk6J87PnoHAL/NYDTWqPWk+X+7JU/QMi9ZVKaF/fEDMu6VMAJxYCmeY3wLQaGAAAgAElEQVQiWeomsMAweHZrQ2SBZn1lEa/uqSNwnwfwKR0K6ePCSKd1w4xxsqZU+c1pNhhwbwfwxVJlbWy9QFzCTyVjkZN06ajJrV4EEunsrQIjTjCvQKpIT5/0YU2cFZOOIte/v2zqcg7OrnbPEE3thVULYQedn5kb2/a9Um0Nw/rmTPZzQrlGgL37KhP05G+U4izxG8/0Lpy1c126EvkfFQkQ1uGV+8Fi9lyIoY7w7FJw1LpW5FEj68Tfe7f+jXn7SklRvlY7+xE++RVua651dZWb+QBPTsYigSXPxNuzt4vIsTqfDZLP0ZSzBlLCYiWfsYGie0qHc6Dn8ToR0dUtUUHlkLw71RiZGBRuiXT2REBu0ZWs6LnWdrN3qd4SYVXxYa7t3sG3c/TR+weFuwY5DmBcIZ5xTSWbzFU0QMiBmrty8M8zhOf75FZSxsqKQjeVgud8x5oAA6tnNWJ5JSK6Qm1ef36i3VGlUP3yuxelQ/AIyHMKIUfqT0+OYTHtPgHJtaLW9qxS5GaHq84fKG9G/eFa+/umETghvXILW7a8UshTNGJFEAuWvmrtG2SZdfOi7OcMy7gG4HgdtguMM1tj5g06ZGuTqZielmG472CIeM6vIfJZbbpKF6yqRFYRxs9SUeOqcl8pfNR8bV+6heIUT2dPE4gqhdxN5xtjoXZtYL6vrh4gmEb6y9b0RNJBtdYMwLZNioi3Oz0iejq/CTC9NWar9reBjnjaOavvyFRbiRmB9wRy9sio2Vqj4g50+6pOmKLSfTnjtRC8VoAtNDrQLYKLWqO24v0IdLSknYsJKHI6HaMnGbO1fRaDNHgqaTsZxAB3BHrx+IKuk5WA7HZAvACDtyWjkV8EJLMkMaEJEJQXiUXOvrBUkEDVfjhM5SUbAlnlND4lMG+H7z/rdFvPzNlDVA/1UI74C90xsc12Tca9AciFumpzE2nnrwAO0GR7TiyJeyje+bNi9SXfBeu0syZbLwLN6e4GgXmlAMfo1YRHkjFbSxvveFv2JDGMSwFur8MHG1Z0RgA5EzpsUzInPcshdr37Wd8wdhf4JxDYJ8wn0304qHL7OaZv3jZzrPxDFzaFyg1VgJDb3BUcYnW5F4D4AfRG8IVitfH55H8p8oDAf76rJ3J3GE8UEhn3DpDHB+f0epKI33u0TpvdJEVxH/RnU0va2YfAP/ubV/LfxTi/q3vlTfN2216VvNbGZobAhIUcOqTOPV0AxZqodYiLfVt3sZ/QoeTEND/lwf2lLk4EQuamYlZgeRNBYTDhbkaGfs47hj53F/JQiISqSm4Tfr4Hwf8b1G1dedNuEqrvntAFCOtAVMk2pBwtoqfbYFAP5fpySLzWy1DIVejxfpH8zOBlOvQUIzPR7qi6fx21vZ5AbmmNWacXY1e+axLloLolF0N4TDJWV3UtofPFsTZv4wioDqeAcY/uhmEArkzG7At07kVLh/tLkifrIfqRzmTM0nn9UhA0E19YPTxiR37gk1tD5EgBdipIQGUn/wngb4NM7g7SndAGCOou8KX2bKOIMREG1IlC2K8cPtgXwoHg7wCX9Ebb9qNBblqhsuKLnPFi5brQBX93SLQZBs6YWQLJSz7+JNL8BOCq4399hDW99Nv3wLJOHEhUwfngu7nPiS/lVuK4MyH4lmYsOgGrQTcjYbzNPRyGf71AGjX40w3XPTS5y6CS+E5KtSuedsbnGGFFRoP4CqAnv6pUOzeyXrG5XgHx7xgZjSwOa+5TaAOEdaDGn3lnK2PYsK+TPDNsxEp5PDhZQF4BuILCuyJiz57RIKvyWBfoFHWHT2C8pnu4h2lZX0+NkYIaMxXqYF/y2FEA7yt0bYHzs/T5pc2tMU2BGA246ZPbsnubhvxd/4+MHD0yat6v+wch18DJzbVPPzjozeollMvlUBwYtOz+5PV2ovUnivAEEsMBKk6XSH/rwvR3ETwHyPV+Z+d9Ye8oHPoAQW3shIULI1sP3XVbx3WuJeU4TT90+p4hAeFjtRjoJPEPwDpN9xvE+s60pJ02AjreJFQAdHsyZk3RB94HknN9Glz314Lc24K+QbyVjFnbV7rESJ+DNckfQoCURNp9Qzf9O4HHYFnfKbbfQqG7Fs+4SSG/q+MHVID21pjdVKhNxc4/vo3b1Rvur0jsJ71Xperfqvj9Ws9ngrzLdu2z3/GxMoy5ah/dn2oDGIk29zti4nqSw4t92MKyzhDjlJlRU5GaaBuT0z3fNmGoJi6fCFyJoC1L56C5scGvBC57IwITaUeRm5ThyobXJ2ORs8rlV01P5RCIp53rBTijDBaML5WGvBAbJ3WsGWn61sN6rhnkDfFxSmuTdW8hNhU6N9GWPRGG3FrouhDOXwHKWclG684Q2rZRk6ouQMh5oogvMt4/CKq34m2rCfAN2OpD8KTn4iLftxZv4aPzl7tidVAkTC0Z588ktBwFEvh3KmYrEqOyje8+x63rB7nnEPixbqW0rOHletvT7UtN/oYRUKdS4rqv6cZHgMu711rX3LG7vKNb1/ryE2lH0cR/TodOIf7S2mgfFIjsvj4hfBtbRCLuWAD/R2KfkPMW5OP6SqjTlqi1X1Df6fkoDWpOdQYIfd43L3b2M0z8HFBkGFoy9IPCOS85irAHZBIi91mm9XZP5+sdc/bYsWhuhdx9neX+sa/ZTF42FDCppy8bWxchy0ZNibc7B4shM0COLsDeIqZyiXj2npWkOi3C6NqSPBFoWfzmMN/c+hkBG/JcUtw0kRfpc2qq0X64OAHFr0q0O5dC5ByAdcVL2chKwePiWoeX8vmYsIyDhnRlo2IZ24A4koKpmgmqAodhgwKJ1RC0Q/C9ZNTWX6KtyauqDhAUJir72PDd830fXxXkKHnD13CjiM0Tkdfo8zqhauLCNzsd67/zCqyRbW7LTjYM47K+RJ4irNj4EhG8gy2tUa2fkM5ABechLFfh0uGfLvRVvfrgPJYUN4XoovD8VCyirmhqY4AhkEh7p4L+VZrKf3vREqwhjAtGNRi/1J2YuKHtmdrBLV16S6lKAIMfrwDyo2TMUk3V8h5TF3CwM8TdUwzZwTf8UQKcBYhiOxwIQ1Un/BsGHqFpXVHt1VBVHyDkniiVZJRxPgsaJ4twvKaEvIo8vH0Zw20k5hngcooscodZC+bs2D9rYyKdnQWIapmsY58XJmP2ZyoCSm/v9j1F5DrdDIsAOyAyuZrfAiq1R2HWm8g4+4KcDYje0wPgEVo8KzUm8t9K4ZFIOwsB7KpBPyEyOxm14v3JVgR4kTXu53zf2AXEDoR/rAjU/w+IF7pe/5kWGI964t8yq8H+z0BIctbxw9Hfs6Lt7+ohtDs9dd/+bQiO1BQ1a7M/D8EOgP8RfCJHxiTG31d3W3/dUDbsKRlu30NXdVY8Kg+5BU+hz8mppsicghcGuCCezk4S5ChlRwYo9sOiFKeFIXdy2bKTUweM0VrKqc2HmuAPIdBbAuip5ODjAGoskePLgKEoyAt6ww56uxIZtxlkKmi5uZ9E4H6BNWVDVVmqF0JPpucAgewPmFsKqFq3q5cKjZjr8LJfme8S/IMB4+76HvOvYWND7Nf6TUwYUAHCOj8TGY4QeONIfq/vDXMg+ukTXCRiPCeE68F7cE1PZN66YCGRyTaDcikAVScc+BgKq/7nMVF5CBUbUxau2savG6y++I7UdEqyzrflAKeFle2sYhtQpYr7WiJPB/BJjS6QwPxBEav5V6PKm5j4UZ/6OBE0tamXZQQuTMWs3MvC+EdojRmRPUZoHkHxLVBU8z11ejGATgreR1jt8d9A/+cRM7JgRoO8rPF5qojogfjD+T6QLYu7mwhzJ1jSCnJURRAum1IuA2QJiS7JlQFyN0jueiH4Dyb5bLIxEgqe876rhrkAPq0VauJxmjwr1RB5WquemnCtCMQ7sp8XT66D4EtaFZGLCPu7qUap2NXC+v4l0s5zfW/vQbvt504nBAspcqAQQyAyZuB/3+JVEUzyPf+1VFPd4qBBDYu8AR0grAP5xMVrx3gwdqdppATYKizga7LDB9AJiAFQCy2xZ1v7zh4tWhrNFIwJKfGM83OBKLKm4KmkPzCoh8RPRsWsayuRbFYwLrUFH0Mgl9yads8Wwf8BCD6r/wON3QRnpqL298NyDz2pw/mS5Sv6dy2jEyIeSNWfIfgXEi0mFy20kyKTxXOeSzYNWlK0lCpZuFkECGov1JdDJoOhNp1miKh2roOqZI9CZ6Y9xBoy45OyJiyGTVjIyNA6L601F6H3vnUtRFpSUeuusPhesyN/BOIZ9ziQrfo/+/JyV48ZCxNT3tTlHOysdosumc4f5QE7s9und74rdaloFF2by0vCZhMgrP/Yqh+UYRH3UgpU9q0q/7EG7GMdsGME/jUM1lcqnX/wUbcS7dkvQORx7XtJ3uma9gVzBuB9Y8CPSqjETXlh7SgvYv5MKMdpNsyFxS8lx0Se0qynIPHfT7OuE+4/BdiroIWb92QXgEpAnL26x/5RmAK+cm3LZhkgrAP3MLJuhw7nZqEo/oSo5iPqcu2pbj3jk1HrsbAcna7vbCLt/gPgvroBANnSlbXnbo5fGNqx1aAgd8IUcVTXv1YN4j8q8p/JmL1fGfQUpkKxz3ZgPOn+tbCFm+VslXytTiSfXgH71D9VOBm7kjuwWQcI64CfNo3GyxO9XwBUiW57YODnKRT7zDk+vF1mxepV2+XQjd6Oj67KJNbbD55YTeFBqaj9VBgDpdBtTCUNyuWo4AsC988Ahmg25dWRt1sjp08XlQcUutGc7m4wYC4CYIfOuFAYJO8CfFYg7Z3PmKfOO1a8UJhVQSNqAcJ64CvWsazvnm6IfJ7k3prLoCq47UWrXk1iuoBvGZbxltfj/C81tv6lMP1IJjq8U+H72pkPBTLHt8yputtcF71TtYU5BHpL/JxbAZmoHRLDOC3ZYP5Ku558Faj+BkvWjjAR2U08fwdCthOBokbXHSjla2Eo5pF4TQT/AvE0V3f9MuwtmMsJWi1A2ADaJy7hDp7vHQrf3weCwwcQDWiAz5YsJ/y/C+QFEoRwpQF5xlljPTdnj/5ZHgM05EOiVP8JWN4MkrrvmiFinNMaNa/V5UtNbukIJDLOOSCuLl3SpiWQvMvw7aml9CUo1cZJz64YIpFtdzcsfhaUbUUUgyqbCONLopNMrFTDK7aey0D8UQzjSb+7+4HUbkNXVMyUkCquBQib2JheIp4hX6Yho8X3vl8GWtaQPiZ5mCXyLsjFEGkTle2vsv59/7+GwX/MjNYpqtfyDEW7nXb2BuQPEM2dPolOw7I+M3Nneak8ztW0FIJAfOna0eJaqv5fS7nv+7YQKz2Lh88eYz9dztO0liVsouuMF8PIcZJQVWYx1+FWXZVuWQhWm9Vc8kUCN4gYLxo9q/8+c7ct396s/C/A2VqAkAdYih1s1Aj3C0JvG8D4vkAOzmPZZj+FIq/B5zIRvN4LhrwjhjxBN/tQ17P1L+m64zvtDQ5du8r9PoDL9W+CPJiMWYfq11PTUCgC8bTzoACHFLquiPk/HtRj/VwXxa7KrVny/NpPWfXqOTP2wweNl7YjMEaAHYuwebNbIoK/+PRuNAzznSUvW08+eoCoKoXa2AQCtQChwMdjUgdHWnQ/BR/fFMEZrJVIFoKgA6iTBn8lRNQpg6IqdQV4wMvyvtmftv8b1BtY/IXumGGbVxE4uhADC58rDuj/KtkY+WHha2srdCGQaHduhMipAPUm5Inca8A8b2ZUMoH4QsrkF5w9jYh5mMBXFOKK0ElA1kNku74Ear0+BeJISIQQLoFf0MBvLMN6pXbaV9i+1AKEwvDqnU3K1H9jkLEVhq6ld5QhuAjk6GJE1daorz9ZS7JbINncQSnEIfiMCZlnGubvZzTIqkJxUm9dy5b4U+n7N+pvDiMZR8zDbg/qR6JQZ2vzP4TAxEx31Kb1J4CqdFnnyAqNH46IGTOKIc6Z8AaHDl6VPdyAMQGQvQHW5WKB3gZS9dLLDFr7ji5qB+VlCC4zje7fGfVDOmcMz5GcqS+X2igAgdrDVwBYm5o6eVF3o2kZcwHZvY+sZ6BTjgaEXEFi1hD4E33+nrD/Ut+JN9atbu8E9x8Pf7qKMNZ9Eah8hA73EhAX6v6iVceXnf+xvqbr2qQglDbjyRPupjlsL/dBEqqrq85B9QOUbLB+uv7zNg2Qvz0Ko3HYBz/sndus3qbOsQ+AGN8WwWEABus0bDOVrUpL1ZXB857rHTd7l/r2zRSHQN2uBQiBwtkrLJc5DTmdYJ0wlyg30NqbakCteJECuD6wAKpJleBvcNz3m6dIxN4Hvn8RIHqbOQFrQNy09FXrR7W7zeL3spSVvZ0E3StAnKb7R5jA86R/mXj++z1JDNsa4/vGARD/YAMYV7t+LGU381rriMhbBHoovDnVYF+Z16rapLwRqAUIeUNV4ET19prJ7kLIBaA0ARghgh02g2YmBQKleTqxGgKzTCyZT9DnD1NNtY6Pmnd1g+JznRp9UVdK+5RBvwoIPYjmCokyOBK0itwlYdBCP5Dni8jrIJeR7KDHK1JjIwtr1wd6ANe4j3oMrkapqjafhvNtCL4KyCdBfAFSIyupxr3s32bebZj2ebVkqP6RCnLGlCUc5XvOVYAcG6TcmqyQICC5E7p/AXyFMB6JGOY9xeQmhcSbqjGjFiCUeaviSzlaHHciBNsQ2EOA/YHcG25tDAQEBGtB3EDXv9MQd6XVNfjNGePEGQiuhc0HlW9Qvxe2rfOxrSvuRBGcCda6tIZtn4q2R+AR8qiQz8HAuwatOwKrFinaqM1rYS1AqOB+x9uzexpijof429DHwTDwebDwYEHzkV4FEapW1XyJkDYhVwLyJgxkN+iJSqsSrKGPVSJ8B2K8TZ9vw7fezRLvDfLf6zS7050zxo0bkAHG1AULbK8+NmytscWwiGALGO5WFNlC6G8DE1vB51ZiGEM3ei1HmAJul6MQhowlOKZan5ia3X0IqKDA57/FkIdAvi2+/dfWJnm2hk9lEKgFCJXB/UNaz1zGQauy2BW+t7MPKuKTyQDG1vIVQrA5+k1QnePWArKa4GohV1NkjTBXlqW4IrpFUHjTGN8HBVkRo8enClDoCOHChAMfDmS9oIXwc39bb1BgQfBBJQ4RIfyI0LCouAXEsAxBhPRVIm4ERuFFO+wNhutBDqJgkJCDIVJPkSFCDiEwWAR14Hp26N+PmoZyIyDw4TMNSKuIvOj6/ov1nfbCGeNkTblNqen7MAK1ACFkT8SkFRwi72YbLDG2gCGjKPwxmKNOrY0aAoUioM4oVHCh/qv+VYdN6/7//Y6DFPz/9t4ETIrq6v//nltVPQPDpuCKyNY9A4oatxgTTTRqosa/8S/B940KdA8G477EJYqCKG5xwz0SmG7AJTpGX/MmGqOJ+sY9uAZ1ZroHcN/AhWGW7qq65/fUAEYNSHfPvdXdM7ee532SN9z7Ped+Tk336ap7z2GS3f/2xcWie9vXlz8fggxg/f8F//v6/x58yReeHRS6EjO+1xFgcCuxuJQsTsPjNrfLyZSyj0uvA6xgQSZBUABRl8R0ZqerpXNLxxL9mO0dJHgGAUGXSXMZAoaAIVBxBJjwAjFdIsh7rYtlVy7b76PGCUGBNHOVIwGTIJRjVDbgEzPT8YBdlYFok963IXA5Ad8xGxwrJIDGTUOgbxKQvLZGybkDYT+TjULeFpRXN1UNK+JuMAlCRYRp407G0947BB5e4csw7hsChkAvI8Cgd1Mxe7tetqw+tRyTIFRwuIPKcaOGe28RYZsKXoZx3RAwBHohAWa83x6zRzQSFb7JthfyqMQlmQShEqO2zufgmCSReATgoMubuQwBQ8AQKCcCK33LPmDRGHq1nJwyvuRPwCQI+bMqu5HxTO5WYpFY2wXOXIaAIWAIlBWBLIEWNMTsk8rKK+NM3gRMgpA3qvIbWJ92n2NzqqH8AmM8MgQMgW4CBDzfEHP2Mjgqk4BJECozbpi0dGlkQFXd0wB2V78E+hzAnQB+DPAY9fpG0RAwBMqCANGb7MtHSdAkAINU+8TgFyKfO3ubcuOqyYajZxKEcDgrt5Jo6vwhW9Z8AqkuL8vE+LvMZY8VVVWjIWmITxAE3o2IJxFovGljqzycRtAQCIOAD3AzJN/LgpcIaXtsWZ+ThxVse7eDsZ/qRozMvBxE9amY83gYCzQ21BIwCYJanqGpJVpyt4FoKgC1+w8Ivu/LSYvqqu7/92KY6pswgKlrC2GJ/n5QqNe2RgnwVAYOAdA/tIUbQ4aAIZAvgaAD4l9AchF7WGY5YI+500P7x3dEN2/7covk+hZvIgvcDWbVjeOyTJRMRe0T8nXajCsfAiZBKJ9YFORJPO3eT8ARBU3KYzAB3oio3W820Vdq8399ancnvTpU+0MQ6dcG8qqwmQX3YGZMA2inIIXIw5wZYggYAmoI+CC8Dp/nSSEfsrNVn3YOBFufIdfVjK7Go775qGHQOMsbvEuHjqeDDPxPKub8/2qWaVTCJGAShDBpK7I1axaLt4717gPwU0WSX5bJJWOOkqcSxzy7apAzdNBxACYTULfOSHDPWcEHEXXvYTKXIWAIfBMBRtB3q7uZVlBPYH3PjCaw+L3/qViwaC9apYJgIu1lAY6o0PqaxgPb324fOXs2fdH/Q4MNI6mBgPmA1gBVt+TUJvd7wsJNAL6l3Bbh0WTUOUi57jrB+FLeGlXuoQQ+ikGjqbsNoCQm6k8Sg0DoZ5r/6KJvdMucQNAyqxOENoDbAcEMKQFaRqA/5GD95Y4YvaNrDfF07jECBfsQVF8vEeyTGmL0jGpho6eXgEkQ9PLVop7IuDMgcS4IAzUY2C8Zc57QoLtRyaAi5MhtvL2EjYPB3acyuvc0MLhKEG3OjC0BDAnTJ2PLENBM4DMAH4P5ExB1ddsiagf4RWb8bWTUfnJTr/lU+5docn8IC39TrQtgNQNXpmLOZRq0jaRGAiZB0AhXl3Q87d1EYC3FR5Ixp2zuiaNf/WyzqkjNrrCxNzGNX8+TgSoi3oZBw8EclJlW8kpEV7yMbp8lkAP4Q4DeBug9ArLrSfjMbwjGc36N/dKi7dS8IlBBOZF2v9L2W4Xm2mSfbk7F7JNV6RmdcAiUzZdBOMutfCvBr+3Rw92bQEFzR8UXw03WOjreQSp1dPIrXGMNcmMkxXiAY2DUfGGAeXMQjQLzSAZtR+h+ZWEuQ0AXgSxA7647zreMiD9db4gYnRLcKoGl3OG0LN4leEJQ3lci7Qatlx3VXjLRb9vHWiebvgyqyerVMwmCXr7K1ae80VVrOdZ1YByqXJzwcDLqHKxcN0TB+HIeInLuSCKxnWQ5nNfuaVh7EVcT02gWIgqWMQqeQACqj3WFuFpjKgQCwS/q9wGkmbkVZLWC/S9/0WeJxPskrRWyA2+mdqXg1UHFXlNbco8IogNVL4AZf/aEf/rt0eqMam2jp4+ASRD0sdWiXJ/JTWGmKwFsrcHAwcmY87AG3bKQDI5y5arHDUU/ZwtisQVLGkLki/XOCbJsBo+QTHUEDl5pjAWwVVk4b5zQQ4DoAzAvA3NaCkpbTCsY/hevAogtlvBWCxYfefBWfiz6rXwoRl/8ux6nSqdan+k6hNl6UIMH7wHy3GSs6nYN2kZSEwGTIGgCq0s2nnbPJSDY7PPFF5sqW1RlD2/Ynt5TpVdpOsHx0WUnoJ/ViYGyKzvIsUUNg6qZeHewmGW6ZlZaRDfiL2MlmGeToBcI3OV6sr26X1Wb14U1ba82djQedVSfbU88pbljuCUc9SclCD4zZqRiTvDjxlwVQsAkCBUSqPVuxpvd80ngUh1uW5a99fwx9KEO7UrWPCXNVe2QZzDk5ZW8DuP7WgIEnFcD+7obe/GTgGJjfdwy3sr3vQ+Knf9N81hiRqrOnGTQwVaXpkkQdJHVoDt9CffPDfYuJODXGuRfFtmOAxZMGPyJBu2Kl5y09KMBA6qGXA5QKDuxiSg1Yqw1LQD3evCdlsHm1YxhFnvDSNDmDAwF01CQHEpEQwA5iCUNgsAgYgxg0GDqPi7K/cDoD1K88YwRFNzuAKiTgQ4Cf86ENZBYTYKDY22rwfQpGJ9A8iqyxCqW/IlP9souwkpE8ckO64r+vN3qL2DmeBg3CTPd6Hda51XChsEweHzdxrSlvLms9h4HYycN9i9f87F9SeN3qVODtpHUQMAkCBqg6pKcmsntTpKuI8K+qm2QEGfUSHGr+VW1cbKJdNePAesqQMuH59cNSxCuHsD2zN4ak+DJzBryLgbjLB2vzDYQyX9JC2ctHOP8VfXfT2/R635aRvJkZnm1hjU9AfCZyVjkRQ3aRlIDAZMgaICqSzLRnP0vkFgA+tKxPmXGeHfzh7tpmN1FqpjOAlh/4Sait6X0zx0VizSGXTRn0yR6NmIWs/1WOjcJwroSzCN6ppbPbPoMxFcno46W13P5eFApYxLp3G4AvaDB3zYJedzCWNU9GrSNpAYCJkHQAFWXZKI5NxWCUnr0TYKQL9dExp3LjOmh1Fhg/IlZnp2qq2rK179KGFe/jOvY864G4TDd/jLQSYR5yahzum5bvUFfY4IASI4n6yILewOnvrAGkyBUTJSZ6lvcqUHrVA0urxRk778gSks1aPc6yWPSHdtF4NwL4Ntr97xpvojmga0LkjH6WLOlUOQTad4C5M4B0/QQDDIz/umSPVFnH4MQ1hGaiWkZniDZexzBPhfFFzMnUrURTT9yFDtr5EL4cDOQlRCob+KBbMkzADlbieCXRBjcKHzn9IZxffeIY6FME2nvpwDfhdAqNfI1To0zc9621FGor+U0fvp73N/t6N538KuQ/OpkKY9O1VX9T0j2Kt5M/Vu8rezybiDCRNWLYRIzhSfmNoyjNtXaRk89Af2/ftT73CcV483ZcWSJm8H4oXoA/Is1WWdR4wQKyqyaK08CiUxuKljXK5//cGKNZMM18nkAACAASURBVDl9YW1VkJRU7DW1JftzQWIegAFhLIKIpzZEI4vCsNVbbBySTldtRaOnEHMQJ6VX0IhK2PZJDWOoWamwEdNCwCQIWrCqF02k3R8A+JOOD1YC/bQhZv9Rvde9W3EWs3gz7c8l4lPCWGlQ75/I2atSXzVMzvCWlnSfJaLRIfG6cWTMOX02kQzDXm+yUZ/2DmfwA+rXRG3C4sMWjHH+T722UVRNwCQIqolq0ks0uwdC4BEd8gT/pw2xapMgFAF3SjMPt4T/PMDbFjG9mClNyZjzRWfLYgRKNSfRkmsCUV0Y9hn0rpTWXovq6N0w7PU2G/XprsMZloYEAYDEQck659Hexqw3rsckCBUSVW0JAtFHgPXzZJT+XiEoystNZpra6u4mmJaE6NhLyZizW4j2emwqkXaDs++79lgoTwFJvMfCsc6LINLSvjhPNyp22LRW9wAp8XsAw5QvwiQIypHqEjQJgi6yCnW7Wzxv5x8BcKNC2bVSTPcL4Z2zwHRZKxrtpHvY6r9r9icCVnCyQXmr3A04lmXm1Ip3nzr58f3394p2PISJ+z32mD16xL43YW2lxKoQTLoMmtj+kvVg41HUZ3sq9JRzvLUrRrK7KNhPe6r19fm+Lyd11kXuN62fVZNVr2cSBPVMlStOe5s3l1n/MjAfr1qcIGYMrhbXXTfClD/tCdvpK3gb1/ODhk7HgcNoIc1vEfOZI2KR+8v1Hfu6PRpHgOR1BNq+J3zznOsz0+88L3vx7TvUBC2azVUkgaCsuzvIOxOES4qU2Og0Zv6tlXNmLJhApqy7ariK9UyCoBioDrn4G52jyLaDFqwa3j3ziclY5FYdfvc1zfpWdx/2+UYQfSuktT/LzCekaiMvh2SvIDPxlty3BNEtDOxd0MQiBxPwEgRObRjrPFmkhJn2JQKJdO4EgG7RAOV19ryfpMb3W6FB20gqJGASBIUwdUnFl/M48r3XwOpbPAMmQVAZt6A+AhH/hhm1KnW/QethwD4zGaPXQ7KXl5lEmncAvGsB/DivCT0exGlAnJ2M2Xo21vXYv8oT0JggSLbtHVOjqVdVB628CG/aY5MgbJpRyUcc15Id75NQ/wXAaIfgk5JRU/pUVZAnMVs1afdEIjED4K1U6W5Mh4NdJOB7IJ3zk3W0TLe9fPQTzTwGwr0MoKNCqTQJfAgSc9aMFbea99r5RCi/MYmMNxXMNwPqe79YLHeYX1v1Rn6emFGlImAShFKRL8CurgSBCa+ShzOS4xxzgqGAeGxq6LGvt29jO871xHSE8jbLGzIeJHqEa0TWvr7U73W72wVXeacR6EwGh1EMKQfQ/3DWOi01gT7YVGzMv+dPIJFxfwjmuQApb/1sEoT841DKkSZBKCX9PGyv3ejlHUAE5S1qiej3LlnnLh5Lb+XhihlSAIH4G9mdYIt7CBhXwLTihzLeY/J/OTJa9VCpOj+u7dDoHwzwbSCEUheCgSaL5KQF0SrTR6T4u2eDM6ct45FS+kG3zf9SLA1fegeNvrP677NnmyJWqtmq1DMJgkqaGrQmLeXIwCrvfAZmaZC/cvuofUGpvlA0rKesJKemeUcRNL0hDWfJN/gkgVdYEeeH80fR8lKASDR3jgFZfwPRqFDsM1ZKsvdbGKPXQrHXx4ysTfi8S0E4R8PSZ63JNl/ROGGCKe+uAa4qSZMgqCKpSaf7uNFgLzjBEJRaVnsR5iSjzoVqRY3alwlMafYOsQQH8Qvr+phte/vUaOoKy2BgJ76cq8nzgidRW4Rl15d06KI6+6Gw7PVFO4mMewkYF2hY+2PO5/Zh8/ao7OZjGriUlaRJEMoqHP/pzDFpHuTA+4Sg4Wy9SRBCiX592r2Xob4z3sacZ2B1MmoPoZCqCDIz1We8TwEMDgVoYIRxf7LWOTI0e33UkLYEgeHlaPXQO2JDV/dRtBWxbJMglHmYggQhAu9zDW76LDEnVedcpEHbSH6ZADMlMm4LQNEQwfzd67APX7wLteu0OfkDrrHWuA8Q0wE67XwVJ7emYk7MlFHWTzyedi8iwgU6in/lYA++I0YmQdAfxqItmAShaHThTNSWIBC9zSxnpGKRxeGspG9bCToZ2uw+DpCGYlcbZJtlxqVw7Kt0vW5Y91oheD99fkhllIOFvuGRvd/iaNBDxFy6CdRnvClS8mVEGK7alkkQVBNVr2cSBPVMlSpqSxCAZ3zJpy+qizyv1GEjtkECwWP4qS3unpbAnQCNDQMTEb0vGaeNjFp/UF2Ouft0TcafKAjXM/M2YawH4FYhnaPn1+KfYb0+CWdd5Wsl0ZLbC0RzAXxHtZcmQVBNVL2eSRDUM1WqOC3DUcleWqlo8AqX8QcrZ08v9bl51esqZ70Tl/KAjoicRiQvBjAoFF+Zm0F0WjLmPKzSXryp62ASYm5Y7ZsBrGYWM/vnxIJbJtAalWsxWhsnMOUNHips/zYCT1TOSdpjy6W4l/K19RJBkyCUeSDjzbnJJGiRajeDboCpWqceMO1wVbP9Jr1EhkcAwc5wmgzoKJ29QeuvQOCs5FjnURVrTbS6B0LiagC7qNDLQ0OCaTGEdWEySm/nMd4MUUWAmeKtfgOt7cap9GKWx6Rqq+5UKmrElBIwCYJSnOrF6tO5mxl0onplSiZjdr16XaO4KQJTWrtqLWlfBfDhmxqr6t8J9LxPfObCqPNUTzSnZdzvSYnrQNizJzqFzGXG/0rLP2vR2OqWQuaZsWoIJNJeA8AJNWpfUiHckIw6pynXNYLKCJgEQRlKPUKJFvd5PR/GJkHQE7H8VKemszsKiKDOvfr6Fht2wWeiR3zpn7m4yBr4k1uy420S1wE4EDqO3W7Y7yck5EkLY1WmGFJ+t5byUdoSBODZZMwJpdOncih9RNAkCGUe6ETaDQreVKl30yQI6pnmrzhrFosVx/iHEOT1ROFsWgQQ9C1YAHTOSsYGfpy/t0AizVsw+RcTc/DUKVLI3GLHMriVhTht1BgrKB8ti9Ux83pGQFuCQOhKRp1+PfPOzNZJwCQIOukq0E6kXVYg83WJIOm4ORlzztKgbSTzJLCuz8Y1JGg6mPvnOa2nw3xmPrk95zQ0TqC8ytx2l/uOyHomeVNoTw6IOph53sio/SuTHPQ05D2bn0i7Qdvu4DWn8h8qyZhjvoN6Fh6ts01wtOLtubimBOFDCJ6dHBu5teceGoWeEoin3ceCVw0EhPb3yMD+qZjz+KZ9Z5rc1LW/bdl/2/RYZSOCLtb/l4xF9lOmaISKJlCfzp3EJC4Eq29fbhKEosMSysTQPpBCWU0vNKIjQWBwC4FOVX30rRfiD21JiYz7PDi8jX/BwgTs3RbE6KVvWmQizbsB3guhgQgMEf6ZjDrfDtWmMbZRAlOauw6xhTWXgVrVmEyCoJqoWj2TIKjlqVxNR4IAYAlLOTlVV9Wk3GEjWBSBSfcsjQzcte4fDIT3xcjwBHDAglrn/zbk9LQW9/sS+BsIdlGLKmJScNqiLWvtm+/rjyJMmCkFEjiuhcf7wlsExh4FTt3kcJMgbBJRSQeYBKGk+L/Z+PQlSxx38C55vScucBmPk28f3jCO2gqcZ4ZrJDD1teyOIiLuBTBOo5mvS39MRFMbol/tilif8Q5h5oVhdmdkcBODf2ZOLIQY/TxMdVdzZfePIFJ+4mb5O7bz+P7k5eGGGVICAiZBKAH0fE0ek+7YLgJHeWEYBv6aijk/ztcPMy4cArOY7bdb3aOlpGuJMDQcq2AipAE6fX2SEG/1DiUp565rLhXKZwQDqwA6Y2TUums2mS+MkGKft5l42nuYwD/Ke0KeA9m2t0mNpg/yHG6GhUwglD/+kNfUa8zFm919SWCDj397skiTIPSEnt659R/zQP7MOwOMC0N7tE/wwVhChPPYA7GFy4mwu44OfhuiRwyPLVySk6vnmva/eu+vYtXjafdhApQnCAT7uw0xeqZYv8w8vQRMgqCXb4/U483eZBKsvsyyeYLQo7jonjzlHR4qOr3zCThTt60v6Qevspau+/8nhFXrILBHwLWdsvPyu+oGrQxxvcZUAQR0JQgs6JjUWNuUWy4gFmEONQlCmLQLtBVvzs4iIS4qcNomh5snCJtEVPIB05t5WI7cS4jolyE6s74YkQjPJt3qyI6Z80xyEB7yIizpShBAuDAZdeYU4ZKZEgIBkyCEALlYE/Vpbz6DpxU7f2PzTIKgmqgevfq3eFvu8m4E4Ug9FkqsSrjP9+1TF9XRuyX2xJjfBAF9CQLNS0bt400AypOASRDKMy7dXiVa3T9C4v9T7aJJEFQT1adX35rbg5luAbAHOLxCSvpW1P1OIagOuoSIT2wYG1mi1ZYRV0JAV4LARA+kovYRSpw0IsoJmARBOVJ1gvXp3HMMUn4u3iQI6mIUhlI8k4sTU/AYdngY9kKw8S4TXZCK2qkQbBkTCgjoShBAeCYZdb6rwEUjoYGASRA0QFUlmch4y8E8SpXeOh0mogcbovZhinWNnEYCiYx7Cbh702JYPRt0raYDjOuStc4FugwYXfUEEhnvz2A+ZO2eUpUXtyZjkahKRaOljoDiYKtzzCgFHfTcTwEMUczCJdA9DTH7WMW6Rk4zgUTauxHgkzWb0SpPRDc2RO1TtRox4soJJDLenZA8Sf3RW/okGbPDqvmhnEtvFzQJQhlHOJF2PwcwSLGLXUSUaojaJyjWNXIhEEikc9cGBYVCMKXBBF+XjEXCPLqpYQ19UzKR8W4D81QNHR1XJ2PO4L5JtfxXbRKEMo6RlgSB0MGMeamYU6FfMmUcsBBcW9ci+goinB2COWUmmHHVyJj9a9O6WRnSUIUSGfd6ZvyCgH6KDZsEQTFQlXImQVBJU7GWjgSBgDUS8qZUrOo8xe4auZAITHmDhwrbn03gk0Iy2SMzBLrF86yZi8bTqh4JmcklI5DIuFdC4iQQahQ7YRIExUBVypkEQSVNxVo6EgQAbQxxTSpmzVbsrpELiQAz0/RliPnSv4zBE0MyW5wZxn0k/fMX1FW1EFFwvNFcFUggkXaDz4vgqeNAxe6bBEExUJVyJkFQSVOxlp4EgVZD8DXJsc7Fit01ciESmHQPWwN39/YOHt2D8Z0QTRdi6jkSOKvtBfuZxqPIL2SiGVteBOrT7kW8tvS3SRDKKzRavTEJgla8PRPXlyDQNcmxlkkQehae0s9mpkQmNxFkXQ3mkaV36N8eMPgtgvhVMmr9AebJQTmFpihfEs3Z2RDCPEEoil7lTjIJQhnHTk+CgDYSuKZhrGNeMZRx7Atxrb4ldwoTzQQwrJB52sYyVkKI2cmodZM2G0Y4VALxluzFROJ08wQhVOwlN2YShJKHYOMOaEkQGGsAXG8K1ZRx4ItwLdHqzoTsfgRc2iNjRJ9J5usWxswrrCLCWLZTEq3uZZA4BcAAxU6aPQiKgaqUMwmCSpqKtbQkCEAHgNuSMcecR1ccr1LLJTLuHEicrmGneX5LY7RDYG4yaqok5gesckYlWnLXM5E55lg5IVPiqUkQlGDUI6IlQSDqgpSLkrUR00FNT9hKp9q9J8FvAbhEpWspk4xatWbPQeluAV2WE2nvdwBPNoWSdBEuT12TIJRnXLq9iqfdTwjYTLGLLkCNyZh9jGJdI1dCAsGphppd3HoIulLDPZPXyhj4FMTnto91GhrJnFrIC1qFDEqkc78H00T1pZaxKhlzymPvTIXEIkw3TYIQJu0CbcVbcsuJSEOzJjzYEHVMs6YC41Guw6cvYccd4h4PpqAB0lYl9vNDZr60PddyW+OECbkS+2LMKyKgrVkTBU+d7JgiN42MYgImQVAMVKVcIu0+DWBvlZqBlmn3rJpo6fTiy7kanvtLAv26DJKD9SA+ZPAV7R9/eFvjd0d0lo6OsayKgK52z5Lx5MJaZ19VfhodtQRMgqCWp1K1RNptBPAzpaImQVCNs2R6kz/gGqfNO55BMwDevGSObNAwfcLgS/2B9m2Lt6b28vLNeFMoAV0JAkB3J2P2fxfqjxkfDgGTIITDuSgr8Yw7lxinFTX5GyaZJwiqiYavV9/EA2F5JzHRLDBXh+9BHhaDDbHMF+dg33xHjFbnMcMMKVMCuhIEAq5tiDm/KtNl93m3TIJQxrdAojl3BgRdq9pFkyCoJhqu3tGv8maRKu8cEgheK5T9xVJemauOXHnnSPq07J01Dm6QgK4EAT6flhwXucFgL08CJkEoz7h0exXPuAcT4yHVLpoEQTXR8PSmNPNwYbmXEtPU8KwqsES0yOLcjPmx/u8oUDMSIRPQlSCwhR+lxjiPhLwcYy5PAiZByBNUKYZNW8Yjpe+t0GD7ke2j9sGziaQGbSOpicC0dG5XyXQ9CJW5qYvwpGA+dUEs8pImREZWA4FJzNaAtPcXEA5ULk/29skova1c1wgqIWASBCUY9YgEZ9sH7Op5ytUZT4LsI5Mx+li5thHUQiDe4h5E4Lkg2kGLgbBEmd+ARacmxzqPhmXS2OkZgeOW8Va+9O4FY5+eKf3n7O2jtmV+qKimqk7PJAjqWGpRSqRdVi/MSwk0vSHmPKNe2yiqJhBv8Y4Eyd8QaAyASv+bZYBamXFuqta+TzUro6eeQH2zuw8L3Apggmr1ZMyp9PtZNZKy0jPBKatw/KczWhIExnuSeObCWGRBmS+/T7s3axaLN4/OHUVEl4K6k4PeczEvY+YZydrI3WTaQZd1XOOZ3C8gaTYRtlHtqEkQVBNVq2cSBLU8latpSRCALAO3pmJO0N/dXGVI4JQ0V7WT/19gXMTg0WXoYo9dItByyfJiOM7vU6Opq8eCRkALgeC4NRgnEBBRbcAkCKqJqtUzCYJansrV4mlXko7HyszJZG2kXrnDRrDHBOIvfToEAwbUC6KzmFn5r7YeO6hW4AMGrooIe8G8sfS5WmmjpoJAIp1rACihQutrGjIZcywNukZSEQGTICgCqUsmkXGfB2NP9fqUTMZskyCoB9sjxUSatwDcKwA6CsCAHolVzuQ1THyvj+y5i6MDP6oct/uGp4m01wCwjgTh2WTMUV5Kvm9EJZxVmgQhHM5FW0m0uHNAmFG0wEYnmgRBPdOeKQbVEdnyngVQ2ScVisfQRL797YZx1Fa8hJmpmoDGBOHiZMyZpdpfo6eOgEkQ1LHUopR4w/0BbDyuQfxhCf+khbHqVg3aRrIQAsxU39yxDVuRDIB+hUxVNpbhMuHVQI8YO4PgKNMuQIiBTuHnog11/d+H2bxYADk9Q+Ovd8XgWDcR8CPVFkhg34axzpOqdY2eOgImQVDHUovSMWkeFIGn/t0s0QoGzktF7d9rcdyI5kUg6MYoc+7OlqAnAJSqp0IXg/4sff9i4UQYvjeLBB0K5tIkK0CXkPYPVvfHvxpHkOkGmdedpGdQvCV7NAnrMjCPVG0hB3uw6dGhmqpaPZMgqOWpXE1bggBISMxJ1plHfMqDlqfgcWnezpfuwRB0OYBheU5TPSxIDhql581ZNL66JRAPfjUKR1zIoEklTFpWsqTzycr9JRntbyrtqY56nnqJtDsbwAUARJ5T8h5mEoS8UZVsoEkQSoY+P8PrEoRPAKjf7UuYk4w6F+bniRmlkkAinduNIX4J8M8I2EyldgFakpnnUda7LLnTV7+EExkewdI/n4in6/hyyMdHInzKTH+QJH+7MBp5IZ85ZoxaAomMewm4O0FQezG8HK0eekdsqOnyqZasUjWTICjFqV5s8itcY/V3nyHQTqrVCXSLLazzzfEy1WS/SY9papP3XWHTJWD+HjScLc93NQxckZX2NXfV0coNzZnezMNcyzsdrGOTbL5ewgXwtCTMWDjWftrsS8ibW48Hxpd/OoS8gZcBfEKPxb4mwMDLfoe9z+JdqF21ttFTR8AkCOpYalGazuzkWryzSeBS1QaY8U+fcebiOrNRSDXbDekFxY/aBA4gGTy2pT3CsLkxG0TirOoucdstE2jNN/kx/T3u73Z4J4JxVSn9BXiJEOKi/tJ69MYYZUvrS9+wHm929yWBoN288nuVJc6LtNnXzNuDggTQXGVKwCQIZRqYL9xipmkt7p5S0HMaXO1i8EmpWKRBg7aR/BKB4AijtHIzCNZEgKOlhcMnOp+vXDhvj2078vFj+hLu7w52pwJ0Sz7j9Y3hVhD9gTx7jjkKqY/yeuV4OldPoJt17ENhYX87NQZLzBMh/XHsiQWTIPSEXkhzj2vJjvdJvK7HHJ+YjEWCRizm0kWAmRIZ70UCRRlc2uJHzL9kx1lYaGnj4LQF+f4UMN+mC1Neuox2gDPJmLOr+XLJi1jRgxLp3Am6kkKL5Q7za6veKNo5MzEUAiZBCAVzz4zEm7PjhBD/YsDumdIGZjPPcz33ott3qHlfubYRxLGv8zaO46VB6A8uYSdGgs/Mp7ZHndsaifxiQjOJ2arJuMcT0Q1gDZtm83WKwGB0uG4uZu7bfKEVNq6+qX1baVVdROBfFDZz06OJ4UmWO6Xqqpo2PdqMKCUBkyCUkn6etidn2ra0qN/1JPm/85yS97DuwjSSJjbU2Q/lPckM3CSB7nf3a7yTAcwEoWaTE/QNCNorf84sL0rVRq5XYSbRkjsVRMHxt8GlbT9N7Qy+LFJjz523LeX1ukTF+vuCRn3GO4QZfwB01MKgOwHr9GSMPu4LLCt5jSZBqIDoBb/c+qf9IwTxvXrcpUnbR637ZhNJPfp9R3W/xx6zo9vtt7UPL3hff6iW46n54iT4YH4TwNWqXyOtffwsfgXiUSV+muCD6SEL1gmZd/DB4/uTly8eM27DBGYxizczuYkEcY8ORsxyYnss8kCxT7J0+GQ0N0zAJAgVcmckmt0DIfCIHnfpVqfGmjlv2w0fd9Njs/epTnubN/dz/ncg+WwC9ivpCruTAzwPktcno1V36/AlnvYmEfh0AHuVNBFau7gnfPavdvpVPb1gBAV1Q8xVJIHuhmHkB8dwjy9S4punSRyUrHMe1aJtRJUSMAmCUpz6xOrT7t7MuBeEbTVY6SSL924YE3lFg3YfkGQ6Jo3hEfJOIdDksmjRzLjXc92rF+/YX8fply9iGm/O7UmCzgHws5IHmugDlrzYJfeGO2L93wXAJfepAh2oX8a7sN/dNEx56W8G3g2Kg6VikUDfXGVOwCQIZR6g9e5170OQVRcQ0Sk6XJaSp1a1OXeZc8mF0Q1e/wxs8X8ECz9n8LEl3Yi43nXG9Y5nXzlvBwpl42mwoY3tyDlgnFYYPS2jmcC3g8RdbWOtv5rH2IUxnr6EHXegezQEpQqbmedowvVg+1Kz/yBPXiUeZhKEEgcgX/PcfVTOTRBoQb5zChz3ish2/HDBhMHm8Wy+4JgpnvFvIvD3AUzId5rOccyY6Xfa14ZdoW7yB1xjrfHOJMbFOteXrzaDX4PEE6la52RzHDJfasC0pby5H/EeI8LO+c8qYKSg+uQYK2ViUgCzEg41CUIJ4Rdqet073yBBGFjo3HzGS9gTFsbotXzG9vUxU1vc7wvgNAj8tKSb9P4diC4mzPTb7VvCTg6+eMoVlAXv550IwmwqVdvqr96YPggP+J5306Jx/R7r6/dsPuuPt/JOJL3utt8artUMeVwqVtWoQdtIaiBgEgQNUHVJJpo7x0A4lwN8lB4b4uVkzNpVj3YvUQ2e5LR6c8F02Lod/Mq73BVB6l0QX+wNcO5YvHVpa9uvfZLgH03MMwFsV8Ra1E4hSGZ6Eyz/lIw5pxGR2ZfwDYQTafdlALuoDcJ6Nb7b8v3z5o/rt1yPvlFVTcAkCKqJatQLjh+91eqdD8YlmszwKt8e/Mdx1KZJv6JlJze7+1gWLiLGPgCqymQxzzHjwvac/UTjBMqVg0+TlnKkv+PtS4Q5RPhOOfgEIOjf8DRb9qzUGPpHmfhUVm4c3sQDh1re59pqWxAu3H6sfZk5Tl1WYf9GZ0yCUDmx6vY0kcmdCtDlYPTX4jrjk2StM1SLdiWKMtOkZ1Bds6U8mVheqe3Ds3A2QV3Gh7grOy01YcAHhU/XP+Pn/+Ktqvr5C4g5qAdRHp81QRVG4NdrquwbG7dDl3kX/sWve4qnvVUaW4+3M4nzUlHrRv13nrGgikB5/NGqWk0f0Ikv563Jc28AaJKm5fo+7D0XxeglTfoVIztpKQ8YWO3tyYzgQ23HMnI8B6I/bT/WmlTuv8bWPvXyG8F8WClbW389dsEmRkF0SluX/c/GTXS0LKO4a3NlaoZ3F+wFR2ItPUb4HstyTp0/hj7Uo29UdRAwCYIOqpo169PuNQycCh29Gbp957cd6ew2r65vFk4KvtTeznh7MeMnIMzQHM6C5Bn4CMQPpqKRREETSzw40eI1MPFPCNiyxK581TxhDlv2n0eOwvPlnmzp4ja9mYe5wgt+EOjZM8LwiHBDQ8z5la41GF09BEyCoIerVtV4c/YIEuI3AGJaDDHaGbgyVevo2uugxW0VovHW3J4suVZABC2wIyo0VWkQ4SlmvkN12WRV/m1KJ57OnUigYwB8d1NjQ/13oqxkfxpLSi+qizwfqu0yMBZvcS8k4FxdPUOI0AKmsxti9h/LYLnGhQIImAShAFjlMjQozjMg490H4HBdPjFouSSctCjaN5o4Jd7kMZx1vw+iEwjYXd+j1uIiRkS/l+Rflhpb9a/iFMpj1pSm7M62bZ3HrL7xWA9XGJSmfhHgW4WQ/1gQrc70UK8ipgdNmSTjZgKP1ujwH9dE7SNN0SqNhDVJmwRBE1jdsol07gxAzABY14bCYBPcM2A+JRmLvKh7PaXSD/onyC7/UAZPBPADjZu0ilwitYPlHU7EuWjeqHAqIxbpaN7Tpq/gbdycexGIjgU0bbbN25v/GPgZCE+A6V5RbT3Ym/s6JNK53QDcBFBw0kTXd8EqBs9JxSJziw+JmVkqArpuilKtp8/YnfxK25ZWv6pHiEhPxbNukt1fTgu6uOuSu+oGrexNcE9Jc9Ua9g8CBQ1pAoa8ffmtj5uIrPlCiNt7ZvytTAAADIRJREFU2+au45bxVp7vHUPANAA7lB97egvgVwGaPwDWX26MUXBMstdcP2/mYdWWdyGYpgGssx35K0DXQcnYQNPauQLvHpMgVGDQ1rucyLhzwDgTWqvW0UqCvKgGzvze8iE5bVnu29Kn64KmSkSk89Fq0XcXgx9nny6w8NmrDeO26JV1KbpPiVR5OzFwKYD9i4alcyLTChC/50s+o7fsT+hOjqX7CwgxC+BhuvAx0AnC1amoExTNMlcFEjAJQgUGbb3L01s/GezKgU0Atta8jM8kyxPffDfS+Pj+5Gm2pU0+KHRkC/wWQPBaRjez4taxtk3zX62ubGL4hJqPe/vO+uDEyIetGNblewvJwkFlUrb6P2JHRO8zy08k0fELo85TxQW39LP2e4ztkcNzkwSJWwAM0ezRBznYdXfEaLVmO0ZeEwGTIGgCG5ZsIp27BaATtNtjeCzl0SPrIvfPpspKEuIZ92BivhqgWgCOdlbFG8iCcIHzmX19X+uqGXQRzA7MniqEFTxNKJcqlRuKpAsgzZLOTtXZDxYf6vBnznqM7Te39w8nn+8GwdbuAdFNyaitpfusdt+NgW4CJkHoBTdCIuN1gLlfGEshiDO6ImLhnSPp0zDsFWMjeIS6UrYNrEbVARDWHICjxeiEOEcC+LSK7B1+G6WPQrRbdqZ+meEts+y9DmAzAOXQ52LjjAhp8uiCTur4+zAxsK2cX8Ed/SZv5nRl64Wwrg4p6J3JmKOn2mtICzBmTILQK+6BRIt7DghBGeBwLsKz7Mrp7eMir5fP0SWm+BtdIwVZwyTRgd0dBam86hhsJDhBZbmX2X7niNTo0V3hBLC8rcSXczW83ANE1s5gLs9XQV9FmGNgpk32o56FVanRtKJcCAdHomuacjuQLX4HYK+w/JIWzlo4xrkmLHvGjh4C5gmCHq7hqgYdBjNecD4+tHLAxFjDRAlBftOCaNXScBf8b2tTmjuGE5xxJKg/MZ8Nwr6l8qVAu0FPgFcYdG17tXVv4wjqLHB+rx4+6W3uN6DdnwiLg+p7QXfBivisYvDTgLyChdXhSbf5jlj/d0oVqKnp7I4C1nhiTjJhQIh+LE1G7Z1Nn4sQiWsyVRF/dJrW3qtkEy3eYRD8ADjUx7LB+9inGbTAZ3/J4tpIE6C3nS4z09SWzm0FRfYilsMggl9FdGQIG65U3i/BkdGnwXxZsjYS1L8310YIJFpye4FoBkB769xxrzwARJ+BcT+kfJZJrJSce25hbb/3tLebZqbJb2Kc5fp7EHEcTPsAHF5FUIKU0j98YW31n5UzNYKhEzAJQujI9Rg8Js2DHLjXEahej4VvUqV2AI8B/CKDlkRqrL/N25Y6VPkxndnJNXnfIwv7kEAEzKNA4sDgmKIqG6HpMDcz4QbYzoPl9Cg6tPUXYWhyU+doy7IOIcapIKorQqKkU4ITEGD5KIhWsEQOEk8PsOynVO5ZmP4e9892+vsLyd9mwu7E3cdGQ98DwMwNLjlnmJMLJb3llBk3CYIylKUWYjq22d3ZEdSorUdDfktsYuYXiEQnS385QI9E2pyX892Vf+JSHtDVzx0Hae0l4Y8niCoi2MxyZ4LYmcH6d1/nt85CR+UA/IUZN7W/bP+98SjyCxXoy+O736WnvR8ScAoIPy63Phn5xoYAj4F/ARS8EswxZFbAegPCf66602m6Jc/OksGpj9xA91sQdBChu5ZHNcBBifDx+fqifByh2ffkUYvGVb2qXNsIloSASRBKgl2P0eBXhNsujwfktXosFKwaPGZdwYSPKDjfn8fFEhEKykcLsQ0xD2VtHSvzcEbdEGaiIy1YSxdEqU/U+FeH7qtK0zIclezvyOD7qUL2JXwTi7UJA60Cy/eD/ySBIJHc5MUMq7szJmEUWHs9g036s3YAn+nUOLepfHqYp2EzTBMBkyBoAlsq2RPe5M06c94FhO4Ki+YqNQHCQwL2OatfxBvmqYGaYATFld5pxQ6SvcsBHKZG1aj0iADhmqxjX1rOx597tL4+OtkkCL0w8N0buwRdDcY+vXB5lbEkhucRDhs42H7qli1pTWU4XVleBq+j2qq879mMP4VS+Key8ITnLeMfPvNZvaUUdXjgyt+SSRDKP0ZFeTg14/5KMC4EMLgoATOpWAIuJN/N0rkwNb58zsMXu5hKmDe5lbe3fPdiIjq6O1EI+pCaKywCnzNwcSrmlMtrzbDW3SfsmD+kXhzmRNq9moETSWszp14MsLClBUWO0gyem4pFGgqbakarIJBoySUIdDoTgpLa1So0jcbGCQTNmAi4JRlzzjKceicBkyD0zriuWxVTPO3fSOCgpa75wNQTa8lAJjitgTXWBald6TM9ZoxqPgSOeXbVoMjQwZcy5I8IFJTYLu9yzfksqhzHEHUyy4ZULHJyObpnfFJDwCQIajiWrcrkD7jGbnNvAGgqAKtsHa1Ex4g+hpQP+pIWLhrnPFaJS+itPsfT7n7EHAfRTwBoa2ncW/ltYl0+g1J+h3Xa4l26a6CYq5cSMAlCLw3sl5c1OcNb2uxeBdCUPrDcMJboMvMdgrCkIRa5OQyDxkZxBOrTuZMkYw8iOqbMO3kWt8CSzOJFXodz9uJd+nZjsZKgD9moSRBCBl4qc1Ne7hhu9bdngmh6qXyoeLsEBuN/GfxYVnbdflfdoKBksrnKnMDPm3lYtSWPJub9GfzTSunrUI5YGfw72e7NXvSt/u+Wo3/GJ7UETIKglmdZq9U38ba+yJ0hSJhNRQVGisEvQFgNDsSjn41Ba/l0sSxwIX10+KR72KrZHWOEdH/EoASAoOqguQogwIyrJLvXL6ozyUEB2Cp6qEkQKjp8BTrf3fURwwjyFwx5aYGz++rwd0HiEva9JxCJrEiNJtOSuYLvhO5W0rncKEG0H5O4AODhFbyc0FxnYEakxp43bxusMl0aQ8NeckMmQSh5CMJ3YPqS9/rnBm7xSxK42jxu3Th/CXGy74r7NnPwicrGOuFH3Fj8OoFT0lyVdbF5znZ/RkQ3GEIbJcAMnBX5/OPfzttjW2UN2AzvyiBgEoTKiJN6L5mpvtU/DozLGGx2eX+JMLE4YURMzJuNoOSO3vbV6gNrFAsiwEyzAHo74yYYNL+gub1+MK0C4fzkWOt35u+g1wd7gws0CULfjPsXq57SlN3ZEuI3oO72sOH1jS8f7sHGw+Co1moGX+EPchoWb22ObpVPeMLzZG2zM3cqQBcANBDgAX30CVuOgL9LT56TGl8VdJ00Vx8lYBKEPhr4ry6bKd7izifCDwAa20eQ+AC/B6IV0ufbO9yWVOOECXl10usjfPrsMvdjtkcv9+PweCoEbQ/u3qfQR2qIcCsDj6eizi/MU4M++yfwxcJNgmDugS8ITGtyvyctnNPd5ImweS9F44PxNMDvsC3uSo2x/7eXrtMsSwGBqa3eT4SUR4NpBBH27iXtxzdAhlYB/JQg+zcLovSUAnRGohcQMAlCLwiiyiXMmsXizWPl6QT+DsCHAqhRqV86Lc4w40lB9Jnr2zcsHkfLS+eLsVxpBBLNnWMg7JMBGsIkv0dMQb+Hir/W9VP4MwPPjLzdnjt7NsmKX5RZgDICJkFQhrJ3CcWX89bw5SRifx8wHQpC8D62wi76GMDDYG5iIV/z2yOPmNKwFRbCMnM32KeQbc8eSLAmEHg8IH4M8BZl5uam3WGsAfGDzHja89x7bt+h5v1NTzIj+hoBkyD0tYgXuN7jVvBo6fp7SsjvE9N/gzC0QImwh+dAfD9D/AXAZ35X7sXFO/Z727xPDTsMvd1ed02R7Rh+UHBpCEn5I4Amgsp9oy+tIuBuwH9COJF/zh9lnqT19ju1J+szCUJP6PWhuUE/B8f3aknQZpJ4Jhh7lMvyGfiIJN/BRA8JAY+EvWzBaLxlkoJyiVAv94OZJi/DCIe9sVLCJsIBDCQI2LJsVk5YwqBLhc8rhWOn54+hD8vGN+NI2RIwCULZhqY8HZvFLJa91rldVaRfjQdvOxI4D4z9wj0OFrRUlg+zEIts31/Ogl3fqlqZGm1aLZfnXdO3vJreyoN9zm5BkhyfxPYATwGJQ8E8JCwSHNTwAJ4gG1fAk2+DIm1rXsR7jUeRH5YPxk7lEzAJQuXHsGQrCJKF919Adftg2DWyLeKK/vuBcHz3KQhwtSLHJAhPsc+LpXTu8224VT5YVsEdOQq52WQ2VSnibGQ0EAj+Rt5cgYjIwslaIMuDI4R/JFk8BYzvAhCKzHaB+UkJ57c5bntCiIG5ms/hbbM7uszfiCLCfVDm/wE8W74MEeYEHAAAAABJRU5ErkJggg==;fontColor=#000000;" parent="1" vertex="1">
                    <mxGeometry x="150" y="550" width="67.3" height="58.5" as="geometry"/>
                </mxCell>
                <mxCell id="18" value="&lt;font color=&quot;#000000&quot;&gt;userservicedb&amp;nbsp;&lt;br&gt;(postgreSQL)&lt;/font&gt;" style="outlineConnect=0;dashed=0;verticalLabelPosition=bottom;verticalAlign=top;align=center;html=1;shape=mxgraph.aws3.rds;fillColor=#2E73B8;gradientColor=none;labelBackgroundColor=none;fontColor=#FFFFFF;" parent="1" vertex="1">
                    <mxGeometry x="690" y="296" width="72" height="81" as="geometry"/>
                </mxCell>
                <mxCell id="20" value="&lt;font color=&quot;#000000&quot;&gt;questionservicedb&amp;nbsp;&lt;br&gt;(postgreSQL)&lt;/font&gt;" style="outlineConnect=0;dashed=0;verticalLabelPosition=bottom;verticalAlign=top;align=center;html=1;shape=mxgraph.aws3.rds;fillColor=#2E73B8;gradientColor=none;labelBackgroundColor=none;fontColor=#FFFFFF;" parent="1" vertex="1">
                    <mxGeometry x="690" y="476" width="72" height="81" as="geometry"/>
                </mxCell>
                <mxCell id="24" value="&lt;font color=&quot;#000000&quot;&gt;mongodb&amp;nbsp;&lt;/font&gt;" style="outlineConnect=0;dashed=0;verticalLabelPosition=bottom;verticalAlign=top;align=center;html=1;shape=mxgraph.aws3.rds;fillColor=#60a917;labelBackgroundColor=none;fontColor=#ffffff;strokeColor=#2D7600;" parent="1" vertex="1">
                    <mxGeometry x="690" y="656" width="72" height="81" as="geometry"/>
                </mxCell>
                <mxCell id="27" value="" style="strokeColor=#dddddd;shadow=1;strokeWidth=1;rounded=1;absoluteArcSize=1;arcSize=2;labelBackgroundColor=none;fontColor=#000000;" vertex="1" parent="1">
                    <mxGeometry x="134" y="423" width="100" height="60" as="geometry"/>
                </mxCell>
                <mxCell id="28" value="Firebase" style="sketch=0;dashed=0;connectable=0;html=1;fillColor=#5184F3;strokeColor=none;shape=mxgraph.gcp2.firebase;part=1;labelPosition=right;verticalLabelPosition=middle;align=left;verticalAlign=middle;spacingLeft=5;fontColor=#999999;fontSize=12;labelBackgroundColor=none;" vertex="1" parent="27">
                    <mxGeometry width="32.4" height="45" relative="1" as="geometry">
                        <mxPoint x="5" y="7" as="offset"/>
                    </mxGeometry>
                </mxCell>
                <mxCell id="30" value="&lt;font color=&quot;#000000&quot;&gt;communication-service&lt;br&gt;(express)&lt;/font&gt;" style="outlineConnect=0;dashed=0;verticalLabelPosition=bottom;verticalAlign=top;align=center;html=1;shape=mxgraph.aws3.ec2;fillColor=#F58534;gradientColor=none;" vertex="1" parent="1">
                    <mxGeometry x="530" y="800" width="76.5" height="93" as="geometry"/>
                </mxCell>
                <mxCell id="33" value="" style="shape=image;verticalLabelPosition=bottom;labelBackgroundColor=#ffffff;verticalAlign=top;aspect=fixed;imageAspect=0;image=data:image/png,iVBORw0KGgoAAAANSUhEUgAAA4QAAAH0BAMAAACX3f7gAAAAGFBMVEXspKffanD0ysz76+vSLTTWQEfQISn///+B0CzQAAAPLElEQVR4XuzRMQ0AIAwAMD6k4WQCCMns8yKAA5bWQlt+jluFKEShQhSiEIUKUYhCFCpEIQpRqBCFKEShQhSiEIUKUYhCFCpEIQpRqBCFKEShQhSiEIUKUYhCFCpEIQpRqBCFKEShQhSiEIUKUYhCFCpEIQpRqBCFKEShQhSiEIUKUYhCFCpEIQpRqBCFKEShQhSiEIUKUYhCFCpEIQpRqBCFKEShQhSiEIUKUYhCFCpEIQpRqBCFKEShQhSiUCEKUYhChShEIQoVohCFKFSIQhSiUCEKUYhChShEIQoVohCFKFSIQhSiUCEKUbji1LOmGaeh8GkK61GoUKFChQoVKlSoUKFChQo3O3fwmjgQRgFcbatXS9Fcg7ade7Z0zru2e15hNdfMmkyvNYPk3y+7l+TjUYIFxbffvLOEyfeTeZMgnoBwf9ub6WDJRTj3mKIfAAdyR0F48BhMuR5ZbkJvvrCMHTMhppouqQlzhYSY9RUxYaGSEPPL0hJWOgkxbkJFiFeMhL68YyXMtRKi4YSUsIiEYEhGWKolxFSWihAvGQn9D07CVSRsk1ASFpEQtlIywtJGwjY5FyFuHpHQURKuImEnCSOhi4SdOEZCbyNhJ4aRMImE0CtkhDsFhK+3nWw2Lz07KRuhU0BoGpmQpcNZz+sqIkJvVRBisuHWY3aMhIkWQkyKU3GMhH/0EjbhBgwtIaFTRIh5gE2JgvBaGhrNhM0YypCBMJWEuWrC+qckLCgIzRbKUC9hcy8JKw7CMSxaMWHtZQwF4QEWrZYQ23BCQVhDGWom3MM0CAgbWYaFbsIAR1IGwkcoQ62E+MxccBDuYfvXTPgsCB0HIZShWkIsw4qCEPYO3YS1FyEhlGVY6iZs5AsaS0EIZaibcA7DICAMknClm3BMSAhlqJcQj6QJAyGsurT/M2H/QxMhIZahWkIEz89IGLLF4G9G5njCIE9hu8slDN8W6b+7XJ6McA8LOAdhSIe/W4H16DhCKEN3oYTZcNZ+174P7GkI3wXh21kI0xn+i5E9jvDJi9gLJMSfCZZTcz7CbNFNj1QQHzY9hHV7ZwLx6ihCuWyffImwHnTz6aR6ZvLB3v10tY2zYRxOyjRsCZBky9Az8ZaWd/B2OpwxW2g7ZmsH22yT+FB9/bebKYUfySNb1p/kWHvsSJesRyS3bRBymj4jHlsnfHgrVVM0moYPWwnrYVJtaEf6hCyGrQhXjbZy8xcY2wkvToVHNXVJuHZKePFswXarS8joVu6cMN5E+DLfyfY53mXCelhtbV80CXnsKgqI8Czd2ss8tkq4sEmISxDtWJeQxTAYwvVE6mW2s1fhuJLbiTahSjD3giD8K5V7+WXnCM2fQ0VCFkP/hPrtZP8ISSETIoq4Q4RltMeE1Vc9QhbDXSKsMov/2nsnLCJNQoVcfuCEOJkdwhs/hLSQCRFF3CnC3NrX3PfeCfmJSSgWw/AJq5ktwlkAhJkeIaKIu0WYd0f4FAghjERC5PKDJ8TpuiH8DnDvhAstQkQRd4ww74xwHh5hEesQMn0RPiFkTAmJVUXuCIt/T/UfrElCjt31jhEuuiKc4oPZJ/xnPDi/VEpdng8neqWehPzsWWiExd1gcP4hrj+djVNhsTEiTIBlmbB4+aaoT28hRhqELIZxSITl0fmLrBARq3tzQp6/tEAoxkcu2LuvAiEIYOCZsDyOXw8Sy0ZmTshe5LYJbyPFtoRhrkPIXH4ohMUPQLT6NxjGxoT0zuwSlggbbjKMNAgZRQyE8POGCAEMZ6aEtKoWNgjZNRqiTOgRXmFW+yOUY1z1FHvSLghTZHesEWZK/1limRYhi6F/wmJLmHKZvKqY5oRMoNgg5BDJE7TQIWQU0S+h/DCqP/HfvTnhHIe0Qih/khU6JxMyfeGTkCeQZ+pNB4QpiokPQmJU1xqEzOVHIRPSpsrMCVdYm70RLtE5mZCFIHTCOsWAGxJOMW5+CPlZCg1CFsNF2IRcNg5NCT9iK++PkJ2TCVkMAyfk79SGhOsUewiPhOycTMhcftCEXGwWZoQ18vGxP0J2To9wCfiACfl/RW5ESMFMeSNkmch1CBlFDJqQ4FVsQLiGYHXvj5AXVKFByGJYBk7IB/20Itx4p2bkl1Al/DQy4RPKecCEPMysJeHFMyCWLo+EI2CIhCyGgRPy+RQy4dHgVRtP4IfsiXtCit/rEDKKGDQhxRcW3l/okXCF44iEzOXbIxyZE7IY5l0SZsonIY+TaRGyGAZNyLHtknDmlZBrYq5BSPjqJnjCK6x9Ft6o7YmQZ5UJGUUMmpBnPeyOcBYAITcMMiGjiKETLnHWbghzFQDhd5DLhMzlh7wjZe7uvjPCWQiEvMtKJmQuP/RaqBKQd0GYqxAIebuqTMgoYsiE/LyLjgjLyD8h7/vXI+QjgneKMOuI8ET5J2QWTI+QUcSACXmgvBvCL8o/IQt9pkfIF08FTMh9UWlACEH/hCptQchiGDIhF/4uCG9VMIRTUsiEzOUHTMhhic0Jj1WghKUmIYthwIQEikwJiwMVCCFPq0nIKGLIhPyGzZDwNlLBElYSoRxF3H/CO1yCHgkZSog0CZnLD5iQX5K2Jyyf73kPhvCqFSFz+WETrjsh/Ad+/gn5PbcmIYvhPhByHC4vL8/Pzy9jAPgnhHlDQkYRQybkTxUyIVq4hE/tCJnLD5pQIWbQEzKK6I9w0YawJ2QuP2zCZF8JOaYioVwMwyd87AmFKGKIhGlPqFEMd4ywJ2Quf8cIe0Lm8oMmnPaEOsVwxwh7Qubyd46wJ2QuP3zCnlDO5ZNwEep2pidkLn/HCHtCPiJ4xwh7QhbDnjD8r7nFXH74hD2hHEUkYf9jU3DBC+ERwf4I/f9qH378Scrl7xhhT8goYhwiIc1n+0U4h4E+IaOIoRIue0KlWQw7Jpz3hBbuqRBy+SESMpDvjdD/nU1yFLEnDPz+QrkYBkhIoGi/CBMTQkYRAyX8jgP5IfR/r71cDEMk5I3aLggrV4RrI0KmL6LgCHmgcr8Il80eWiK/KCE4Qg5uvl+Eq2aPDpKLYXiEfHSQG8LYyzPY7lsQMoqoT3jvijD1QBh5eRLirAXhCsVQn/DGEWEN8j0inINcIpSLoT7howNCkj+6ITx0QsiJIxPK6Qt9wgdHhEvMMgeEM0eE08ZPBZaLoT7hwgUhN1H7RZhg+CVCOYqoT5i5IOSo2CKco6RYJmSdz1sR1iiG2oS5I8IrHMcB4Y0bwmXz91TIxVCfsHRByESEG8IHF4QsTTKhHEVsQFg4IOTPMY4IMx/vbHpsQ8hiCMLNSY3IOiErfmaFkHM5d0HI18LJhHL64roB4aETwiXEXRCWbginEJcI5c101oBwZp+QXwlZI/yOPF+Qr6CUo4hFTEIMPpZuW4Qs1jM7hEyhHAb7Ilg5faFPuHBCOAKPHcInjINdQp4zb0fIKOIWwrrCKe0TJjiMBULu666tE3IX3I6Q6YsthKrComudcIldhg1CFvrMBWHKOi8TykUg3kKYol5YJWSpzpwRltYJWcNaEvJAWwinCGpYJeQpbywQQgXDZoeQL5toScj0xRbCERYbq4Qc2Jk9QpVgftol5K1lLQlZDEEIFVQmW4S8+8oWIZeYzC4hN1CL1oSMIoIQHxCDZY0wxUS1RjjCZs0mIU9435qQxRCEmDcAtkLIE2Y2Ca8qDKlFQhbfw9aELIYg3IRdlbFVQu6f7BHyTQm5ZcIRqlJbQqYvNhPWeB+uTUJe9ZFNwiU6Z0w4a9C3zIAQ8+9UqrHPLY8NCMVdQz3FdWGPkPMzNyYso81nS7FuGxBiVQYhKvDP9tX0Ru3ieDPhH1WFobJGyPlZncg1moSavfutwgrTlJDiMiG3pFWx8ejrRIuwqj5H2iubXcI5OrfpSOupQCj27j0veTPCuUCIUcVSKvSShPJUXaYVtvkWCFGdxIVwPXwWIiHaEQFqCFbXhoQrXcI6geFfbxnWw6TaQoip+o6CHxN+lo4J5XqSHwDwE7omEFbF6xd+XUwJHRkSrnUJ1YjKnw/EXpKQiJinaDMLhGI9uf3w0u+0YiMhX9v2Lv6vZ2eTii1T7QhJTkJuXtmODn7hG4xTAJGQrRwPPvw8yO8pBUtlgRCdY7s7Gpz/aIPBcIKZuYWQjOPBYDz59rbxzJhwLhCK4/+jn4PheDwB3xZCtuLf8Xi46SAP1gnXIEKTCVu1MjYmXAmEPLJ+I2G7dmidUI18EV4rY8K1NuGTL8Jc2SdceSIsIgNCmEuEdeKJcOaAUE39EP6tOiC80iVUcz+EmXJB+OSFsIi6IFxpE679EB46IaxTH4RfVBeEtTahGvkgzJQTQrUyJHxqtR01ISS6TLhO3BMWkSNCNTUjXBpUeVPCK21C9acZoWqxWH1V9gjNJ+gjfoFosZcxJ1wJhKYzNTaZArlyRqg+Gl5Gw6Rh3+KuCOtEn3CdmiFcNPz74tAhofqjqeDtq9E5bVQIwdOaUI30CdWyaTksXyKs3xsI2iZU7xsB3tHg9wZT9ER1R/g/gdBgtSmPsFicfTPopUjozvDuQPhFURTskHApEMKwISAQddebY+WaUA11e/YBAPI6w1yGOSGLIQlpmDQFJGKq08sTZZHQpHd379S2djERBXPQmBGqkUDIZIVxN89O2/SShKvxry1S5m15KvjhAmT7NNw+R29j1THhSiBkuKL5OkPE7XMVRRSEFpq0JynuBrIff6FnTsFrk7fP5fhn1ECaq9+EzZ4rQo5/8tblh34JiuP0rVngEZBrhbzMyIqTt4ooemmfkOP/7UVy4jxuNUqDXw9TYBb4V5wkFfrZYrAmyYte/r9dOjYBEIgBKBocJW5gc4NZZH0LrxcJyCHvDxASXuqxqC86c7Y3vyFmo1bsyLzX20ZzzJsro9ZNCBEKoRAKIUIhFEIhRCiEQiiECIVQCIUQoRAKoRAiFEIhFEKEPw6hEAohQiEUQiFEKIRCKIQIhVAIhRChEAqhECIUQiEUQoRCKIRCiFAIhVAIEQqhEAohQiEUQiFEKIRCKIQIhVAIhRChEAqhECIUQiEUQoRCKIRCiFAIhVAIEQqhEAohQiEUQiFEKIRCKIQIhVAIhRChEAqhECIUQiEUQoRCKIRCiFAIhVAIEQqhEAohQiEUQiFEKIRCKIQIhVAIhRChEAqhECIUQiEUQoRCKIRCiFAIhVAXCPHSMvNU8H0AAAAASUVORK5CYII=;" vertex="1" parent="1">
                    <mxGeometry x="139" y="687" width="90" height="50" as="geometry"/>
                </mxCell>
            </root>
        </mxGraphModel>
    </diagram>
</mxfile>